<?xml version="1.0" encoding="utf-8"?>
<!-- Generator: Adobe Illustrator 22.1.0, SVG Export Plug-In . SVG Version: 6.00 Build 0)  -->
<svg version="1.1" id="Layer_1" xmlns="http://www.w3.org/2000/svg" xmlns:xlink="http://www.w3.org/1999/xlink" x="0px" y="0px"
	 viewBox="0 0 103.8 103.4" style="enable-background:new 0 0 103.8 103.4;" xml:space="preserve">
<style type="text/css">
	.st0{fill:#1CA8FC;}
	.st1{fill:#FFFFFF;}
</style>
<path id="bg" class="st0" d="M102.2,64.2c-6.8,27.8-34.9,44.5-62.5,37.6C11.9,94.9-4.8,66.9,2.1,39.2C8.9,11.4,37-5.3,64.6,1.6
	C92.4,8.3,109.2,36.5,102.2,64.2L102.2,64.2L102.2,64.2L102.2,64.2z"/>
<g>
	<g>
		<g>
			<g>
				<rect x="34.7" y="36.1" class="st1" width="34.7" height="6.1"/>
			</g>
		</g>
		<g>
			<g>
				<rect x="34.7" y="49" class="st1" width="34.7" height="6.1"/>
			</g>
		</g>
		<g>
			<g>
				<rect x="34.7" y="61.9" class="st1" width="34.7" height="6.1"/>
			</g>
		</g>
	</g>
	<g>
		<g>
			<path class="st1" d="M52,10.2c-23.1,0-41.8,18.7-41.8,41.8c0,23.1,18.7,41.8,41.8,41.8c23.1,0,41.8-18.7,41.8-41.8
				C93.8,28.9,75.1,10.2,52,10.2z M55.1,87.6v-9.7H49v9.7C30.7,86,16.3,70.7,16.3,52c0-18.6,14.4-34,32.6-35.5v9.7h6.1v-9.7
				C73.3,18,87.7,33.4,87.7,52C87.7,70.7,73.3,86,55.1,87.6z"/>
		</g>
	</g>
</g>
</svg>
