<?xml version="1.0" encoding="utf-8"?>
<!-- Generator: Adobe Illustrator 22.1.0, SVG Export Plug-In . SVG Version: 6.00 Build 0)  -->
<svg version="1.1" id="Layer_1" xmlns="http://www.w3.org/2000/svg" xmlns:xlink="http://www.w3.org/1999/xlink" x="0px" y="0px"
	 viewBox="0 0 103.8 103.4" style="enable-background:new 0 0 103.8 103.4;" xml:space="preserve">
<style type="text/css">
	.st0{fill:#2769D3;}
	.st1{fill:none;}
	.st2{fill:#FFFFFF;}
</style>
<path id="bg" class="st0" d="M102.2,64.2c-6.8,27.8-34.9,44.5-62.5,37.6C11.9,94.9-4.8,66.9,2.1,39.2C8.9,11.4,37-5.3,64.6,1.6
	C92.4,8.3,109.2,36.5,102.2,64.2L102.2,64.2L102.2,64.2L102.2,64.2z"/>
<g>
	<path class="st1" d="M52.1,2.5C24.9,2.5,2.7,24.6,2.7,51.9c0,27.3,22.1,49.4,49.4,49.4s49.4-22.1,49.4-49.4
		C101.5,24.6,79.4,2.5,52.1,2.5z M15.1,52.1c-0.1,1.5-2.3,2.1-3.1,0.8c-0.7-0.9-0.3-2.2,0.7-2.6C13.9,49.7,15.4,50.8,15.1,52.1z
		 M79.8,33L79.8,33c1.4-1,3.6,0.2,3.4,1.8c0.1,1.5-1.8,2.7-3.2,1.9C78.5,36.1,78.4,33.8,79.8,33z M73.1,41.1c0.1,2.4-2.9,4-4.9,2.6
		c-2-1.2-1.9-4.4,0.2-5.4C70.4,37.3,73.1,38.9,73.1,41.1z M66.8,56.1c-2.5,1.7-6.3,0.8-7.7-1.9c-1.7-2.8,0-6.7,3.2-7.6
		c2.2-0.6,4.9,0.2,6.1,2.2C70,51.2,69.2,54.6,66.8,56.1z M69.5,17.9c1.2-0.6,2.3,0.5,2.5,1.7c-0.3,1-1.1,1.9-2.2,1.6
		C68.1,20.9,67.9,18.4,69.5,17.9z M62.7,26.9c0.8-2,4-2,4.8-0.1c0.9,1.5-0.2,3.4-1.8,3.9C63.7,31,61.8,28.8,62.7,26.9z M62,38.2
		c1.7,2.4,0.8,6.1-1.8,7.4c-2.7,1.6-6.7,0.2-7.7-2.7c-1.1-2.7,0.5-6,3.3-6.8C58.1,35.3,60.8,36.2,62,38.2z M50.3,15.9L50.3,15.9
		c1.7-0.9,3.8,1.2,2.9,2.9c-0.5,1.4-2.6,1.8-3.6,0.7C48.5,18.5,48.9,16.5,50.3,15.9z M51.3,27.4c1.1,0.2,2.3,0.7,2.8,1.8
		c0.9,1.5,0.1,3.6-1.5,4.2c-0.7,0.4-1.6,0.2-2.4,0.2C49,33,48,31.9,48.1,30.5C48.1,28.8,49.6,27.5,51.3,27.4z M42.7,36.3
		c2.5-1.2,5.8-0.2,7,2.3c1.4,2.4,0.3,5.8-2.2,7.1c-2.5,1.4-6.1,0.3-7.3-2.3C38.8,40.9,40,37.5,42.7,36.3z M37.3,46.7
		c2.3-0.6,4.9,0.4,6.1,2.5c1.2,2.1,0.7,5-1.2,6.6c-2.5,2.3-7,1.3-8.3-1.7C32.4,51.2,34.2,47.4,37.3,46.7L37.3,46.7z M36,25.7
		c1.8-1.1,4.3,0.5,4,2.5c-0.1,2-2.8,3.2-4.4,1.8C34.1,29,34.3,26.5,36,25.7z M31.7,17.9c1-0.4,2.4,0.5,2.3,1.6
		c0.1,1.2-1.4,2.1-2.5,1.5C30.1,20.6,30.3,18.3,31.7,17.9z M20.4,33L20.4,33c1.6-1,3.8,0.8,3.2,2.5c-0.3,1.5-2.4,2.1-3.5,1.1
		C18.9,35.8,19,33.6,20.4,33z M23.7,69.1c-0.2,1.5-2.1,2.4-3.4,1.5c-1.4-0.8-1.3-3,0.1-3.7v0C21.9,65.9,24.1,67.3,23.7,69.1z
		 M25.9,52.7c-0.5,1.8-3,2.4-4.3,1.1c-1.5-1.2-1-3.9,0.9-4.5C24.5,48.6,26.7,50.7,25.9,52.7z M29.5,40.7c0.2-1.6,1.7-2.6,3.2-2.7
		c1.6,0.2,2.9,1.5,3.1,3.1c-0.1,1.6-1.4,3.2-3.1,3.2C30.8,44.5,29.1,42.6,29.5,40.7z M32.2,59.3L32.2,59.3c2.2-0.4,4.3,2.1,3.4,4.1
		c-0.7,2.2-3.9,2.8-5.4,1C28.6,62.7,29.9,59.5,32.2,59.3z M33.3,85.5c-1.2,0.8-2.7-0.3-2.8-1.6c0.3-0.9,1-1.8,2.1-1.6
		C34.3,82.5,34.7,84.8,33.3,85.5z M37.1,78.2c-1.3,0-2.1-1.1-2.5-2.2c0-1.1,0.5-2.4,1.7-2.9c1.7-0.9,3.9,0.6,3.7,2.5
		C40.1,77.1,38.6,78.4,37.1,78.2z M44,67.7c-2.5-0.4-4.5-2.8-4.4-5.2c0-2.4,1.8-4.6,4.2-5.1h0c3.2-0.8,6.5,1.8,6.6,5
		C50.6,65.5,47.3,68.4,44,67.7z M53.1,86.7c-0.5,0.5-1.1,1.1-1.9,1.1c-1.5,0.2-2.8-1.5-2.2-2.8h0c0.3-1.3,2.1-2,3.2-1.3
		c0.8,0.3,1,1.2,1.2,1.9C53.3,85.9,53.2,86.3,53.1,86.7z M49.4,75.5c-2.1-1.2-1.8-4.8,0.6-5.5c2-0.8,4.5,0.8,4.3,2.9
		C54.4,75.3,51.3,76.9,49.4,75.5z M56.7,67.7c-3-0.4-5.2-3.6-4.3-6.4c0.4-1.9,2-3.4,3.9-3.9h0c3.2-0.9,6.7,1.8,6.6,5
		C63.1,65.5,59.9,68.3,56.7,67.7z M63.7,77.6c-1.5-1.1-1.4-3.6,0.3-4.4c1.7-1,4.2,0.5,4,2.4C68,77.7,65.3,79,63.7,77.6z M72,84.2
		c-0.1,1.5-2.4,2-3.2,0.7v0c-0.8-1.1,0.1-2.5,1.4-2.8C71.2,82.4,72.2,83.1,72,84.2z M68.2,64.9c-2.2-1.2-1.8-4.8,0.6-5.5
		c2-0.8,4.4,0.9,4.2,3C73.2,64.7,70.2,66.3,68.2,64.9z M76.5,52.1c-0.1-1.7,1.2-3.1,2.8-3.2c1.4,0.2,2.7,1.3,2.6,2.8
		c0.1,1.9-2.2,3.2-3.9,2.3C77.2,53.7,76.8,52.9,76.5,52.1z M82.7,70.1c-1,1.2-3.1,0.9-3.7-0.6c-0.8-1.4,0.6-3.3,2.2-3
		c0.8,0,1.4,0.6,1.9,1.1C83.3,68.4,83.4,69.4,82.7,70.1z M89.1,53.4c-1.7,0.2-2.3-2.4-0.8-3.1c0.8-0.6,2.2-0.2,2.5,0.8
		C91.3,52.1,90.3,53.5,89.1,53.4z"/>
	<path class="st2" d="M40.2,43.4c1.2,2.6,4.8,3.7,7.3,2.3c2.5-1.3,3.6-4.6,2.2-7.1c-1.2-2.5-4.5-3.5-7-2.3
		C40,37.5,38.8,40.9,40.2,43.4z"/>
	<path class="st2" d="M35.6,30.1c1.5,1.4,4.3,0.2,4.4-1.8c0.3-2-2.2-3.6-4-2.5C34.3,26.5,34.1,29,35.6,30.1z"/>
	<path class="st2" d="M33.9,54c1.3,3.1,5.9,4,8.3,1.7c1.9-1.5,2.4-4.5,1.2-6.6c-1.1-2.1-3.8-3.2-6.1-2.5h0
		C34.2,47.4,32.4,51.2,33.9,54z"/>
	<path class="st2" d="M12.7,50.3c-1,0.4-1.4,1.8-0.7,2.6c0.8,1.2,3,0.7,3.1-0.8C15.4,50.8,13.9,49.7,12.7,50.3z"/>
	<path class="st2" d="M20.1,36.6c1.2,0.9,3.2,0.3,3.5-1.1c0.6-1.7-1.6-3.5-3.2-2.5v0C19,33.6,18.9,35.8,20.1,36.6z"/>
	<path class="st2" d="M31.5,21.1c1.1,0.6,2.6-0.3,2.5-1.5c0.1-1.1-1.2-2.1-2.3-1.6C30.3,18.3,30.1,20.6,31.5,21.1z"/>
	<path class="st2" d="M20.4,66.9L20.4,66.9c-1.4,0.7-1.5,2.9-0.1,3.7c1.3,0.9,3.2,0,3.4-1.5C24.1,67.3,21.9,65.9,20.4,66.9z"/>
	<path class="st2" d="M22.5,49.3c-1.9,0.5-2.5,3.3-0.9,4.5c1.3,1.3,3.8,0.6,4.3-1.1C26.7,50.7,24.5,48.6,22.5,49.3z"/>
	<path class="st2" d="M50.2,33.6c0.8,0,1.6,0.2,2.4-0.2c1.6-0.7,2.4-2.7,1.5-4.2c-0.5-1.1-1.7-1.5-2.8-1.8c-1.7,0.1-3.2,1.4-3.2,3.1
		C48,31.9,49,33,50.2,33.6z"/>
	<path class="st2" d="M68.4,38.4c-2.1,1-2.3,4.2-0.2,5.4c2,1.4,5-0.3,4.9-2.6C73.1,38.9,70.4,37.3,68.4,38.4z"/>
	<path class="st2" d="M80,36.7c1.3,0.8,3.3-0.4,3.2-1.9c0.2-1.7-2.1-2.9-3.4-1.8v0C78.4,33.8,78.5,36.1,80,36.7z"/>
	<path class="st2" d="M62.3,46.7c-3.2,0.8-4.8,4.8-3.2,7.6c1.4,2.7,5.2,3.6,7.7,1.9c2.4-1.5,3.1-4.9,1.5-7.2
		C67.2,46.9,64.5,46.1,62.3,46.7z"/>
	<path class="st2" d="M52.5,42.9c1,3,5,4.4,7.7,2.7c2.6-1.4,3.5-5,1.8-7.4c-1.3-2-3.9-2.9-6.2-2.1C53,36.9,51.4,40.2,52.5,42.9z"/>
	<path class="st2" d="M69.8,21.1c1.1,0.3,1.9-0.6,2.2-1.6c-0.2-1.1-1.3-2.2-2.5-1.7C67.9,18.4,68.1,20.9,69.8,21.1z"/>
	<path class="st2" d="M53.2,18.8c0.9-1.7-1.2-3.8-2.9-2.9l0,0c-1.4,0.5-1.8,2.5-0.7,3.6C50.7,20.6,52.7,20.2,53.2,18.8z"/>
	<path class="st2" d="M65.8,30.6c1.6-0.5,2.7-2.4,1.8-3.9c-0.9-1.9-4.1-1.9-4.8,0.1C61.8,28.8,63.7,31,65.8,30.6z"/>
	<path class="st2" d="M68.8,59.4c-2.4,0.7-2.8,4.3-0.6,5.5c1.9,1.4,4.9-0.2,4.8-2.6C73.2,60.3,70.8,58.6,68.8,59.4z"/>
	<path class="st2" d="M70.2,82.2c-1.2,0.3-2.1,1.6-1.4,2.8v0c0.8,1.3,3.1,0.9,3.2-0.7C72.2,83.1,71.2,82.4,70.2,82.2z"/>
	<path class="st2" d="M56.3,57.3L56.3,57.3c-1.9,0.5-3.5,2-3.9,3.9c-0.8,2.8,1.4,6,4.3,6.4c3.2,0.6,6.4-2.1,6.2-5.3
		C63,59.1,59.5,56.5,56.3,57.3z"/>
	<path class="st2" d="M81.9,51.7c0.1-1.5-1.2-2.5-2.6-2.8c-1.7,0.1-2.9,1.5-2.8,3.2c0.3,0.8,0.7,1.5,1.5,1.9
		C79.6,55,82,53.7,81.9,51.7z"/>
	<path class="st2" d="M64,73.2c-1.7,0.8-1.9,3.4-0.3,4.4c1.6,1.3,4.4,0,4.3-2C68.1,73.7,65.7,72.2,64,73.2z"/>
	<path class="st2" d="M90.8,51c-0.3-1-1.7-1.4-2.5-0.8c-1.4,0.7-0.9,3.3,0.8,3.1C90.3,53.5,91.3,52.1,90.8,51z"/>
	<path class="st2" d="M81.3,66.5c-1.6-0.3-3,1.6-2.2,3c0.5,1.4,2.7,1.8,3.7,0.6c0.7-0.6,0.5-1.6,0.4-2.5
		C82.7,67.1,82.1,66.4,81.3,66.5z"/>
	<path class="st2" d="M35.6,63.4c0.9-2.1-1.2-4.5-3.4-4.1h0c-2.4,0.2-3.7,3.4-2,5.1C31.7,66.2,35,65.6,35.6,63.4z"/>
	<path class="st2" d="M32.7,82.4c-1.1-0.2-1.8,0.7-2.1,1.6c0.1,1.3,1.5,2.4,2.8,1.6C34.7,84.8,34.3,82.5,32.7,82.4z"/>
	<path class="st2" d="M32.7,44.3c1.7,0,3-1.6,3.1-3.2c-0.2-1.6-1.5-2.9-3.1-3.1c-1.5,0.1-3,1.1-3.2,2.7
		C29.1,42.6,30.8,44.5,32.7,44.3z"/>
	<path class="st2" d="M36.3,73.2c-1.2,0.4-1.7,1.7-1.7,2.9c0.4,1,1.2,2.2,2.5,2.2c1.5,0.2,3-1.1,3-2.6C40.2,73.8,38,72.3,36.3,73.2z
		"/>
	<path class="st2" d="M52.2,83.7C51.1,83,49.3,83.6,49,85h0c-0.6,1.3,0.8,3,2.2,2.8c0.8,0,1.4-0.5,1.9-1.1c0.1-0.4,0.2-0.7,0.3-1.1
		C53.2,84.9,53,84,52.2,83.7z"/>
	<path class="st2" d="M50,70c-2.4,0.7-2.7,4.3-0.6,5.5c1.9,1.4,5-0.2,4.9-2.6C54.4,70.9,51.9,69.2,50,70z"/>
	<path class="st2" d="M50.4,62.3c0-3.2-3.4-5.8-6.6-5h0c-2.4,0.5-4.2,2.7-4.2,5.1c-0.1,2.5,1.9,4.8,4.4,5.2
		C47.3,68.4,50.6,65.5,50.4,62.3z"/>
</g>
</svg>
