<?xml version="1.0" encoding="utf-8"?>
<!-- Generator: Adobe Illustrator 22.1.0, SVG Export Plug-In . SVG Version: 6.00 Build 0)  -->
<svg version="1.1" id="Layer_1" xmlns="http://www.w3.org/2000/svg" xmlns:xlink="http://www.w3.org/1999/xlink" x="0px" y="0px"
	 viewBox="0 0 103.8 103.4" style="enable-background:new 0 0 103.8 103.4;" xml:space="preserve">
<style type="text/css">
	.st0{fill:#104B79;}
	.st1{fill:#FFFFFF;}
	.st2{display:none;}
</style>
<path id="bg" class="st0" d="M102.2,64.2c-6.8,27.8-34.9,44.5-62.5,37.6C11.9,94.9-4.8,66.9,2.1,39.2C8.9,11.4,37-5.3,64.6,1.6
	C92.4,8.3,109.2,36.5,102.2,64.2L102.2,64.2L102.2,64.2L102.2,64.2z"/>
<g>
	<g>
		<path class="st1" d="M52.2,8.2L14,30.3v44.1l38.2,22.1l38.2-22.1V30.3L52.2,8.2z M87.1,72.5L52.2,92.6L17.4,72.5V32.2l34.9-20.1
			l34.9,20.1v40.3H87.1z"/>
	</g>
	<g>
		<polygon class="st1" points="67.2,27.3 37.2,27.3 33.7,42.6 70.8,42.6 		"/>
		<polygon class="st1" points="42.5,63.7 42.5,53.5 33.6,47.8 23.5,55.3 37.3,79.2 42.7,79.2 49.2,73.2 49.2,70.1 		"/>
		<polygon class="st1" points="62,44.9 42.5,44.9 45.8,53.5 44.8,63 52.2,63 59.7,63 58.8,53.5 		"/>
		<polygon class="st1" points="70.9,47.8 62.1,53.5 62.1,63.7 55.4,70.1 55.4,73.2 61.8,79.1 67.3,79.1 80.9,55.3 		"/>
	</g>
</g>
<g id="stsh4N.tif" class="st2">
	
		<image style="display:inline;overflow:visible;" width="87" height="87" id="Layer_0_1_" xlink:href="3252ECE221A0452D.png"  transform="matrix(1 0 0 1 -2 16)">
	</image>
</g>
</svg>
