<?xml version="1.0" encoding="utf-8"?>
<!-- Generator: Adobe Illustrator 22.1.0, SVG Export Plug-In . SVG Version: 6.00 Build 0)  -->
<svg version="1.1" id="Layer_1" xmlns="http://www.w3.org/2000/svg" xmlns:xlink="http://www.w3.org/1999/xlink" x="0px" y="0px"
	 viewBox="0 0 103.8 103.4" style="enable-background:new 0 0 103.8 103.4;" xml:space="preserve">
<style type="text/css">
	.st0{fill:#FEDA0C;}
	.st1{fill:#FFFFFF;}
</style>
<path id="bg" class="st0" d="M102.2,64.2c-6.8,27.8-34.9,44.5-62.5,37.6C11.9,94.9-4.8,66.9,2.1,39.2C8.9,11.4,37-5.3,64.6,1.6
	C92.4,8.3,109.2,36.5,102.2,64.2L102.2,64.2L102.2,64.2L102.2,64.2z"/>
<path class="st1" d="M32,21.9c-0.2-0.1-0.4-0.1-0.6-0.1c-0.7,0-1.2,0.5-1.2,1.2v54.5c0,0.2,0.1,0.4,0.1,0.6c0.3,0.6,1,0.8,1.6,0.5
	l49-27.3c0.2-0.1,0.4-0.3,0.5-0.5c0.3-0.6,0.1-1.3-0.5-1.6L32,21.9z"/>
</svg>
