<?xml version="1.0" encoding="utf-8"?>
<!-- Generator: Adobe Illustrator 22.1.0, SVG Export Plug-In . SVG Version: 6.00 Build 0)  -->
<svg version="1.1" id="Layer_1" xmlns="http://www.w3.org/2000/svg" xmlns:xlink="http://www.w3.org/1999/xlink" x="0px" y="0px"
	 viewBox="0 0 103.8 103.4" style="enable-background:new 0 0 103.8 103.4;" xml:space="preserve">
<style type="text/css">
	.st0{fill:#389DB3;}
	.st1{fill:#FFFFFF;}
</style>
<path class="st0" d="M64.6,1.6C37-5.3,8.9,11.4,2.1,39.2c-6.9,27.7,9.8,55.7,37.6,62.6c27.6,6.9,55.7-9.8,62.5-37.6
	C109.2,36.5,92.4,8.3,64.6,1.6z"/>
<path class="st1" d="M80.2,34.5h-0.9c-0.4,0.7-0.9,1.3-1.4,1.6c-0.6,0.4-1.2,0.6-1.9,0.8c-0.7,0.1-1.9,0.2-3.6,0.2h-8.3L64,37
	c1-0.9,3.4-3.5,7.3-7.7c2.6-2.9,4.5-5.6,5.7-8.1c0.8-1.6,1.1-3.3,1.1-4.9c0-2.3-0.9-4.3-2.6-5.9c-1.7-1.7-3.9-2.5-6.5-2.5
	c-2.4,0-4.5,0.8-6.1,2.3c-1.6,1.6-2.6,3.8-3,6.7h0.9c0.6-1.8,1.5-3.1,2.8-4.1c1.3-0.9,2.7-1.4,4.2-1.4c1.7,0,3.2,0.7,4.5,2
	c1.2,1.3,1.9,3,1.9,5c0,2.7-1.1,5.6-3.4,8.8c-1.7,2.4-4.2,5.2-7.7,8.6c-3.9-2.5-8.5-3.7-13.8-3.7c-6.7,0-12.2,2-16.5,6.1
	s-6.4,9-6.4,14.7c0,3.7,0.9,7.1,2.8,10.2s4.6,5.5,8.1,7.2c-4.3,3.6-7,6.4-8.2,8.3c-1.2,2-1.8,3.7-1.8,5.1c0,1.3,0.4,2.5,1.3,3.5
	s2.4,2.2,4.6,3.5c-4,4.1-6.1,6.4-6.4,6.8c-0.8,1-1.5,1.8-2,2.7c1.9,1,3.9,1.9,6,2.7c0-0.2,0-0.4,0-0.6c0-1.5,0.5-3.2,1.5-5
	c1-1.8,2.5-3.8,4.5-5.9c5.1,0.7,12.3,1.2,21.7,1.5c6.4,0.2,10.7,0.7,12.9,1.6c2.1,0.9,3.2,2.4,3.2,4.6c0,0.4,0,0.9-0.1,1.3
	c1.6-0.8,3.2-1.8,4.7-2.7c0-0.3,0-0.7,0-1c0-3.4-1.2-6.3-3.5-8.6c-2.3-2.3-5.4-3.8-9.3-4.3c-2.6-0.4-8.1-0.7-16.7-1
	c-4.7-0.1-7.6-0.3-8.8-0.5c-2-0.3-3.4-0.8-4-1.4c-0.7-0.7-1-1.3-1-2c0-0.8,0.3-1.8,1-3c0.6-1.2,1.9-2.6,3.7-4.1
	c3,0.8,5.9,1.3,8.7,1.3c6.9,0,12.4-1.9,16.5-5.7c4.1-3.8,6.1-8.4,6.1-13.8c0-4.3-1-7.8-2.9-10.7h8.7L80.2,34.5z M57.6,66.3
	c-2,2.4-4.6,3.6-7.8,3.6c-3.3,0-6.1-1.4-8.2-4.1c-2.8-3.6-4.2-8.7-4.2-15.3c0-5.1,1-8.9,3.1-11.3c2.1-2.5,4.7-3.7,7.7-3.7
	c3.3,0,6.1,1.4,8.2,4.1c2.9,3.7,4.3,8.9,4.3,15.6C60.7,60.2,59.6,63.9,57.6,66.3z"/>
</svg>
