<?xml version="1.0" encoding="utf-8"?>
<!-- Generator: Adobe Illustrator 22.1.0, SVG Export Plug-In . SVG Version: 6.00 Build 0)  -->
<svg version="1.1" id="Layer_1" xmlns="http://www.w3.org/2000/svg" xmlns:xlink="http://www.w3.org/1999/xlink" x="0px" y="0px"
	 viewBox="0 0 103.8 103.4" style="enable-background:new 0 0 103.8 103.4;" xml:space="preserve">
<style type="text/css">
	.st0{fill:#2EA7DF;}
	.st1{filter:url(#Adobe_OpacityMaskFilter);}
	.st2{fill:#FFFFFF;}
	.st3{mask:url(#mask-2_2_);fill:#FFFFFF;}
</style>
<path id="bg" class="st0" d="M102.2,64.2c-6.8,27.8-34.9,44.5-62.5,37.6C11.9,94.9-4.8,66.9,2.1,39.2C8.9,11.4,37-5.3,64.6,1.6
	C92.4,8.3,109.2,36.5,102.2,64.2L102.2,64.2L102.2,64.2L102.2,64.2z"/>
<title>Artboard</title>
<desc>Created with Sketch.</desc>
<g id="Artboard">
	<g id="Group-Copy" transform="translate(60.000000, 43.000000)">
		<g id="Group-35">
			<g id="Clip-34">
			</g>
			<defs>
				<filter id="Adobe_OpacityMaskFilter" filterUnits="userSpaceOnUse" x="-33.2" y="-31.8" width="34.6" height="80.7">
					<feColorMatrix  type="matrix" values="1 0 0 0 0  0 1 0 0 0  0 0 1 0 0  0 0 0 1 0"/>
				</filter>
			</defs>
			<mask maskUnits="userSpaceOnUse" x="-33.2" y="-31.8" width="34.6" height="80.7" id="mask-2_2_">
				<g class="st1">
					<polygon id="path-1_2_" class="st2" points="-33.2,-31.8 1.4,-31.8 1.4,48.9 -33.2,48.9 					"/>
				</g>
			</mask>
			<path id="Fill-33" class="st3" d="M1.4-7c0-11.6-5.6-21.5-9.9-24.8c0,0-0.3-0.2-0.3,0.3c0,0,0,0,0,0C-9.2-9.1-20.6-3.1-26.9,5.1
				c-14.5,18.8-1,39.5,12.7,43.3c7.7,2.1-1.8-3.8-3-16.3C-18.7,17.1,1.4,5.5,1.4-7"/>
		</g>
		<path id="Fill-36" class="st2" d="M7.9,0.8c-0.1-0.1-0.2-0.1-0.3,0C7.3,3.7,4.4,9.7,0.7,15.2C-11.8,33.9-4.6,43-0.6,47.8
			c2.3,2.8,0,0,5.8-2.9c0.5-0.2,11.3-6.3,12.5-20C18.8,11.6,10.7,3.3,7.9,0.8"/>
	</g>
</g>
</svg>
