<?xml version="1.0" encoding="utf-8"?>
<!-- Generator: Adobe Illustrator 22.1.0, SVG Export Plug-In . SVG Version: 6.00 Build 0)  -->
<svg version="1.1" id="Layer_1" xmlns="http://www.w3.org/2000/svg" xmlns:xlink="http://www.w3.org/1999/xlink" x="0px" y="0px"
	 viewBox="0 0 103.8 103.4" style="enable-background:new 0 0 103.8 103.4;" xml:space="preserve">
<style type="text/css">
	.st0{fill:#2DB2AB;}
	.st1{fill:#FFFFFF;}
</style>
<path id="bg" class="st0" d="M102.2,64.2c-6.8,27.8-34.9,44.5-62.5,37.6C11.9,94.9-4.8,66.9,2.1,39.2C8.9,11.4,37-5.3,64.6,1.6
	C92.4,8.3,109.2,36.5,102.2,64.2L102.2,64.2L102.2,64.2L102.2,64.2z"/>
<g>
	<path class="st1" d="M61.9,80.5C61.9,80.5,61.9,80.5,61.9,80.5c1.9,1.1,4.2,0.4,5.3-1.4c1.1-1.8,0.4-4.2-1.4-5.3c0,0,0,0,0,0
		c-1.9-1.1-4.2-0.4-5.3,1.4C59.4,77.1,60,79.4,61.9,80.5z"/>
	<path class="st1" d="M70.3,61.1c0.3-1.1-0.4-2.2-1.5-2.5s-2.2,0.4-2.5,1.5c-0.3,1.1,0.4,2.2,1.5,2.5C69,62.8,70.1,62.2,70.3,61.1z"
		/>
	<path class="st1" d="M58.3,61.2c1.1,0,1.9-0.9,2-2c0-1.1-0.8-2.1-2-2.1c-1.1,0-2.1,0.8-2.1,2c0,0.1,0,0.1,0,0.2
		C56.2,60.3,57.2,61.2,58.3,61.2z"/>
	<path class="st1" d="M68.9,68.5c0.4-0.8,0.1-1.7-0.7-2c0,0,0,0,0,0c-0.8-0.4-1.7-0.1-2,0.7c-0.4,0.8-0.1,1.7,0.7,2
		C67.6,69.6,68.5,69.3,68.9,68.5z"/>
	<path class="st1" d="M53.9,32.6c-0.1,0-0.1,0-0.2,0c-1.1,0.3-1.7,1.5-1.4,2.5c0.3,1.1,1.5,1.7,2.5,1.4c1.1-0.3,1.7-1.4,1.5-2.5
		C56.1,33,55,32.4,53.9,32.6z"/>
	<path class="st1" d="M59.2,45.9c1-0.6,1.3-1.8,0.8-2.8c0,0,0,0,0,0c-0.6-1-1.8-1.3-2.8-0.8v0c-1,0.6-1.3,1.8-0.8,2.8
		C56.9,46.1,58.2,46.4,59.2,45.9z"/>
	<path class="st1" d="M87.5,54.3c0.7-1.4,0.1-3.1-1.3-3.8c0,0,0,0,0,0c-1.4-0.7-3.1-0.1-3.8,1.3c-0.6,1.4,0,3.1,1.5,3.7
		C85.3,56.1,86.9,55.6,87.5,54.3z"/>
	<path class="st1" d="M57.5,26.9c-1,0-1.8,0.8-1.8,1.8c0,1,0.8,1.8,1.8,1.8c0.1,0,0.1,0,0.2,0c1-0.1,1.7-1,1.6-2
		C59.2,27.5,58.4,26.9,57.5,26.9z"/>
	<path class="st1" d="M82.1,27.9c-2.1-0.5-4.2,0.8-4.7,2.9c-0.4,2.1,1,4.2,3.1,4.6c2,0.4,4-0.8,4.5-2.8
		C85.5,30.4,84.2,28.3,82.1,27.9z"/>
	<path class="st1" d="M50.8,26.2c0.1,1.2,1.1,2,2.3,2c1.2-0.1,2-1.1,2-2.3s-1.1-2-2.3-2C51.6,24.1,50.7,25.1,50.8,26.2z"/>
	<path class="st1" d="M72.6,86C72.6,86,72.6,86,72.6,86c2.2,1.3,5,0.5,6.3-1.7c1.3-2.2,0.5-5-1.7-6.2c0,0,0,0,0,0
		c-2.2-1.3-5-0.5-6.3,1.7C69.7,82,70.4,84.7,72.6,86z"/>
	<path class="st1" d="M71.2,68c0.9,0.4,1.9,0,2.3-0.8c0.4-0.9-0.1-2-1-2.3c-0.8-0.3-1.8,0-2.2,0.8C69.8,66.6,70.3,67.6,71.2,68z"/>
	<path class="st1" d="M79.9,61.4c1.2,0.6,2.7,0.1,3.3-1.1v0c0.5-1.2,0-2.7-1.3-3.2c-1.2-0.5-2.5,0-3.1,1.1
		C78.2,59.4,78.7,60.8,79.9,61.4C79.9,61.4,79.9,61.4,79.9,61.4z"/>
	<path class="st1" d="M72.3,58.6c1.3,0.3,2.6-0.5,2.9-1.8c0.3-1.3-0.5-2.6-1.8-2.9c0,0,0,0,0,0c-1.3-0.3-2.6,0.5-2.9,1.8
		C70.3,57,71.1,58.3,72.3,58.6z"/>
	<path class="st1" d="M50,43.6C50,43.6,50,43.6,50,43.6c0.7,1.1,2.2,1.4,3.3,0.7c1-0.7,1.4-2,0.8-3.1c-0.7-1.2-2.1-1.5-3.3-0.9
		C49.7,41,49.3,42.4,50,43.6z"/>
	<path class="st1" d="M79.2,45.1c1.8,0.4,3.5-0.7,4-2.5c0.4-1.8-0.7-3.5-2.5-4c-1.8-0.4-3.5,0.7-4,2.5
		C76.3,42.9,77.4,44.7,79.2,45.1z"/>
	<path class="st1" d="M75.5,65.6c1.1,0.5,2.3,0.1,2.8-1c0.5-1,0.1-2.3-1-2.8h0c-1-0.5-2.3-0.1-2.8,1C74,63.8,74.5,65.1,75.5,65.6z"
		/>
	<path class="st1" d="M73,40.4C73,40.4,73,40.4,73,40.4c0-1.8-1.5-3.3-3.3-3.3c0,0,0,0,0,0c-1.8,0-3.3,1.5-3.3,3.3c0,0,0,0,0,0
		c0,1.8,1.5,3.3,3.3,3.3C71.6,43.7,73,42.2,73,40.4z"/>
	<path class="st1" d="M74.2,49.4c-0.4,1.5,0.6,3,2.1,3.4c1.5,0.4,3-0.6,3.4-2.1c0.3-1.5-0.7-3-2.2-3.3C76,47.1,74.6,48,74.2,49.4z"
		/>
	<path class="st1" d="M19,39.1C19,39.1,19,39.1,19,39.1c0.8,2,3,3.1,5,2.3c1.8-0.7,2.9-2.6,2.4-4.5c-0.6-2.1-2.8-3.2-4.9-2.6h0
		C19.5,34.9,18.4,37,19,39.1z"/>
	<path class="st1" d="M60.3,54.8c0,1.3,1.1,2.4,2.4,2.4c1.3,0,2.4-1.1,2.4-2.4c0-1.3-1.1-2.4-2.4-2.4C61.4,52.4,60.3,53.5,60.3,54.8
		z"/>
	<path class="st1" d="M64.2,61.6c-0.9-0.3-1.9,0.3-2.2,1.2c0,0,0,0.1,0,0.1c-0.2,1,0.4,1.9,1.4,2c0.9,0.2,1.8-0.4,2-1.3
		C65.7,62.8,65.2,61.9,64.2,61.6z"/>
	<path class="st1" d="M71,26.4c-2.1,0-3.9,1.7-3.9,3.9c0,2.1,1.7,3.9,3.9,3.9c2.1,0,3.9-1.7,3.9-3.9C74.8,28.1,73.1,26.4,71,26.4z"
		/>
	<path class="st1" d="M58.5,35.5c-0.9,0.3-1.4,1.3-1.2,2.2c0.3,0.9,1.3,1.4,2.2,1.2c0.9-0.3,1.4-1.3,1.2-2.2
		C60.4,35.8,59.4,35.3,58.5,35.5z"/>
	<path class="st1" d="M60.9,30.2c-0.8,0.1-1.5,0.8-1.4,1.6c0.1,0.8,0.8,1.5,1.6,1.4c0.8-0.1,1.5-0.8,1.4-1.6
		C62.5,30.7,61.8,30.1,60.9,30.2z"/>
	<path class="st1" d="M64,48.6c0,1.5,1.3,2.8,2.8,2.8s2.8-1.3,2.8-2.8s-1.3-2.8-2.8-2.8S64,47,64,48.6z"/>
	<path class="st1" d="M69.7,13.6c-2.5,0-4.6,2-4.6,4.6c0,2.5,2.1,4.6,4.6,4.6c2.5,0,4.6-2,4.6-4.6C74.3,15.7,72.2,13.6,69.7,13.6z"
		/>
	<path class="st1" d="M39.5,21.2c-0.1,0-0.2,0-0.3,0c-1.6,0-2.8,1.3-2.8,2.9c0,1.6,1.3,2.8,2.9,2.8c0.1,0,0.2,0,0.3,0
		c1.6,0,2.8-1.3,2.8-2.9C42.3,22.4,41,21.2,39.5,21.2z"/>
	<path class="st1" d="M30.6,22.2C30.6,22.2,30.6,22.2,30.6,22.2L30.6,22.2c-1.8,0.1-3.3,1.6-3.2,3.4s1.6,3.3,3.4,3.2
		c0.1,0,0.2,0,0.2,0c1.8-0.1,3.2-1.7,3.1-3.5C34,23.4,32.4,22.1,30.6,22.2z"/>
	<path class="st1" d="M24.7,44.2L24.7,44.2c-1.8,1.1-2.5,3.4-1.4,5.3c0,0,0,0,0,0c1.1,1.8,3.4,2.5,5.3,1.4c1.9-1.1,2.5-3.4,1.4-5.3
		C28.9,43.7,26.5,43.1,24.7,44.2z"/>
	<path class="st1" d="M14.5,50.7c-2.2,1.3-2.9,4-1.7,6.2c0,0,0,0,0,0c1.3,2.2,4.1,2.9,6.3,1.7c2.2-1.3,2.9-4.1,1.7-6.2
		C19.5,50.2,16.7,49.4,14.5,50.7z"/>
	<path class="st1" d="M31.5,30.8c-0.1,0-0.2,0-0.3,0.1c-1.7,0.5-2.7,2.4-2.2,4.1s2.4,2.7,4.1,2.2c1.8-0.5,2.8-2.3,2.4-4
		C35.1,31.4,33.3,30.3,31.5,30.8z"/>
	<path class="st1" d="M40,29.8c-1.5,0.4-2.3,2-1.9,3.5c0.4,1.5,2,2.3,3.5,1.9c1.5-0.4,2.3-2,1.9-3.5S41.5,29.4,40,29.8z"/>
	<path class="st1" d="M34.4,40.7c-1.6,0.9-2.1,2.9-1.2,4.5c0,0,0,0,0,0c0.9,1.6,2.9,2.1,4.5,1.2c1.6-0.9,2.1-2.9,1.2-4.5
		c0,0,0,0,0,0C38,40.3,35.9,39.8,34.4,40.7z"/>
	<path class="st1" d="M57.5,89.2c2.2,0,3.9-1.7,3.9-3.9c0-2.1-1.7-3.9-3.9-3.9c-2.2,0-3.9,1.7-3.9,3.9
		C53.6,87.4,55.3,89.2,57.5,89.2z"/>
	<path class="st1" d="M42,67.4c0.9-1,0.9-2.5-0.1-3.4c0,0,0,0,0,0c-1-0.9-2.5-0.9-3.4,0.1c-0.9,0.9-0.9,2.4,0.1,3.3c0,0,0,0,0,0
		C39.6,68.4,41.1,68.4,42,67.4z"/>
	<path class="st1" d="M53.9,73.9C53.9,73.9,53.9,73.9,53.9,73.9c1.6,0.9,3.6,0.4,4.5-1.2c0.9-1.6,0.4-3.6-1.2-4.5c0,0,0,0,0,0
		c-1.6-0.9-3.6-0.4-4.5,1.2C51.8,71,52.4,73,53.9,73.9z"/>
	<path class="st1" d="M91,46.3c0.8-1.6,0.1-3.6-1.5-4.4c0,0,0,0,0,0c-1.6-0.8-3.6-0.1-4.4,1.5c-0.8,1.6-0.1,3.6,1.5,4.4c0,0,0,0,0,0
		C88.2,48.6,90.2,47.9,91,46.3z"/>
	<path class="st1" d="M45.5,70.4C45.5,70.4,45.5,70.4,45.5,70.4c-1.1-1.1-2.9-1-4,0.1c-1.1,1.1-1,2.9,0.1,3.9c0,0,0,0,0,0
		c1.1,1.1,2.9,1,3.9-0.1C46.7,73.2,46.6,71.5,45.5,70.4z"/>
	<path class="st1" d="M45.4,59.8C45.4,59.9,45.4,59.9,45.4,59.8c1.2,0.7,2.6,0.3,3.3-0.9c0.7-1.1,0.3-2.6-0.9-3.3c0,0,0,0,0,0
		c-1.2-0.7-2.6-0.3-3.3,0.9C43.8,57.7,44.2,59.2,45.4,59.8z"/>
	<path class="st1" d="M45.3,82.7C45.3,82.7,45.3,82.7,45.3,82.7c-1-1.5-3.1-1.9-4.6-0.9c-1.5,1-1.9,3.1-0.9,4.6c0,0,0,0,0,0
		c1,1.5,3.1,1.9,4.6,0.9C46,86.3,46.4,84.2,45.3,82.7z"/>
	<path class="st1" d="M47,81.5c1.3,1.2,3.4,1.2,4.7-0.2c1.2-1.3,1.2-3.4-0.1-4.6c0,0,0,0,0,0c-1.3-1.2-3.4-1.2-4.7,0.2
		C45.6,78.1,45.6,80.2,47,81.5C47,81.5,47,81.5,47,81.5z"/>
	<path class="st1" d="M46.9,21.9c-0.1,0-0.2,0-0.3,0c-1.3,0.1-2.4,1.2-2.3,2.5c0.1,1.3,1.2,2.4,2.5,2.3c0,0,0.1,0,0.1,0
		c1.3,0,2.4-1.1,2.4-2.5C49.4,23,48.3,21.9,46.9,21.9z"/>
	<path class="st1" d="M47.6,30.6L47.6,30.6c-1.3,0.4-2,1.7-1.6,3c0,0,0,0,0,0c0.4,1.3,1.7,2,3,1.6c1.2-0.4,1.9-1.7,1.6-2.9
		C50.2,30.9,48.8,30.2,47.6,30.6z"/>
	<path class="st1" d="M42.2,43.4C42.2,43.4,42.2,43.4,42.2,43.4c0.8,1.4,2.5,1.8,3.8,1c0,0,0,0,0,0c1.3-0.8,1.8-2.5,1-3.8
		c0,0,0,0,0,0c-0.8-1.3-2.5-1.8-3.8-1C41.9,40.3,41.5,42,42.2,43.4z"/>
	<path class="st1" d="M46.8,52.7c0.6-1,0.2-2.2-0.8-2.8c-1-0.6-2.3-0.2-2.8,0.8c-0.6,1-0.2,2.2,0.8,2.8c0,0,0,0,0,0
		C45,54,46.2,53.7,46.8,52.7z"/>
	<path class="st1" d="M33.7,56.5c0.6-0.5,0.8-1.3,0.4-2c-0.5-0.7-1.5-0.8-2.1-0.3c-0.6,0.5-0.8,1.4-0.4,2v0
		C32.1,56.9,33,57,33.7,56.5z"/>
	<path class="st1" d="M48.6,66.8c1.3,0.8,3.1,0.3,3.8-1c0.8-1.3,0.3-3-1-3.8c0,0,0,0,0,0c-1.3-0.8-3-0.3-3.8,1
		C46.8,64.3,47.2,66,48.6,66.8z"/>
	<path class="st1" d="M31.6,72.7c0.8,1.1,2.3,1.4,3.4,0.6c1.1-0.8,1.4-2.3,0.6-3.4c-0.8-1.1-2.3-1.4-3.4-0.6
		C31.1,70.1,30.8,71.6,31.6,72.7L31.6,72.7z"/>
	<path class="st1" d="M37.3,61.2C37.3,61.2,37.3,61.2,37.3,61.2c0.8,0.8,2.1,0.7,2.9-0.1c0.8-0.8,0.7-2.1-0.1-2.9c0,0,0,0,0,0
		c-0.8-0.8-2.1-0.7-2.9,0.1C36.5,59.1,36.5,60.4,37.3,61.2z"/>
	<path class="st1" d="M30.4,60.9C30.4,60.9,30.4,60.9,30.4,60.9L30.4,60.9c0.6,0.8,1.8,0.9,2.5,0.3c0.7-0.6,0.9-1.6,0.4-2.3
		c-0.6-0.8-1.7-1-2.5-0.5C30.1,58.9,29.8,60,30.4,60.9z"/>
	<path class="st1" d="M34.6,79.5c0.9,1.3,2.6,1.6,3.9,0.7c1.3-0.9,1.6-2.6,0.8-3.9c0,0,0,0,0,0c-0.9-1.3-2.6-1.6-3.9-0.7
		C34.1,76.4,33.8,78.2,34.6,79.5C34.6,79.5,34.6,79.5,34.6,79.5z"/>
	<path class="st1" d="M30.3,66.4C30.3,66.4,30.3,66.4,30.3,66.4c0.7,1,2,1.2,2.9,0.6c1-0.6,1.2-2,0.6-2.9c0,0,0,0,0,0
		c-0.7-1-2-1.2-2.9-0.6C29.9,64.1,29.6,65.4,30.3,66.4z"/>
	<path class="st1" d="M37.4,55.6c0.8,0.6,1.9,0.5,2.5-0.3c0.5-0.7,0.5-1.6-0.1-2.3c-0.7-0.7-1.8-0.6-2.5,0.1
		C36.7,53.9,36.7,55,37.4,55.6C37.4,55.6,37.4,55.6,37.4,55.6z"/>
</g>
</svg>
