<?xml version="1.0" encoding="utf-8"?>
<!-- Generator: Adobe Illustrator 22.1.0, SVG Export Plug-In . SVG Version: 6.00 Build 0)  -->
<svg version="1.1" id="Layer_1" xmlns="http://www.w3.org/2000/svg" xmlns:xlink="http://www.w3.org/1999/xlink" x="0px" y="0px"
	 viewBox="0 0 103.8 103.4" style="enable-background:new 0 0 103.8 103.4;" xml:space="preserve">
<style type="text/css">
	.st0{fill:#14819B;}
	.st1{fill:#FFFFFF;}
</style>
<path id="bg" class="st0" d="M102.2,64.2c-6.8,27.8-34.9,44.5-62.5,37.6C11.9,94.9-4.8,66.9,2.1,39.2C8.9,11.4,37-5.3,64.6,1.6
	C92.4,8.3,109.2,36.5,102.2,64.2L102.2,64.2L102.2,64.2L102.2,64.2z"/>
<path class="st1" d="M82.8,54.1l-3.8-2.7l3.8-2.6c5.8-4.1,7.2-12,3.1-17.8c-0.9-1.2-1.9-2.3-3.1-3.1l0,0l-11.9-8.4L56.2,29.9l4,2.8
	l10.8-7.6l9.3,6.5c3.7,2.6,4.6,7.7,2,11.5c-0.6,0.8-1.2,1.5-2,2l-5.1,3.6L33.5,19.5l-12,8.4c-7.3,5.1-7.3,15.9,0,21l3.8,2.6
	l-3.8,2.6c-5.8,4.1-7.2,12-3.1,17.8c0.9,1.2,1.9,2.3,3.1,3.1l11.9,8.4l14.8-10.3l-4-2.8l-10.8,7.5l-9.3-6.5c-3.7-2.6-4.6-7.7-2-11.5
	c0.6-0.8,1.2-1.5,2-2l5.1-3.6l41.6,29.2l12-8.4C90.1,70,90.1,59.2,82.8,54.1z M80.2,71.4l-9.3,6.5L33.2,51.5l15-10.4l-4-2.8
	l-15,10.5l-5.1-3.6c-4.7-3.3-4.7-10.2,0-13.5l9.3-6.5l37.6,26.4L56.1,62l4,2.8l15-10.5l5.1,3.6C84.9,61.2,84.9,68.1,80.2,71.4z"/>
</svg>
