<?xml version="1.0" encoding="utf-8"?>
<!-- Generator: Adobe Illustrator 22.1.0, SVG Export Plug-In . SVG Version: 6.00 Build 0)  -->
<svg version="1.1" id="Layer_1" xmlns="http://www.w3.org/2000/svg" xmlns:xlink="http://www.w3.org/1999/xlink" x="0px" y="0px"
	 viewBox="0 0 103.8 103.4" style="enable-background:new 0 0 103.8 103.4;" xml:space="preserve">
<style type="text/css">
	.st0{fill:#013878;}
	.st1{fill:#FFFFFF;}
</style>
<path id="bg" class="st0" d="M102.2,64.2c-6.8,27.8-34.9,44.5-62.5,37.6C11.9,94.9-4.8,66.9,2.1,39.2C8.9,11.4,37-5.3,64.6,1.6
	C92.4,8.3,109.2,36.5,102.2,64.2L102.2,64.2L102.2,64.2L102.2,64.2z"/>
<path class="st1" d="M52,43.1c-3.2-4.5-6.4-9.1-9.6-13.6c-0.5-0.8-1.3-1.3-2.1-1c-0.6,0.2-1.2,0.8-1.6,1.4
	c-4,5.9-7.9,11.8-11.8,17.7c-1.2,1.8-2.3,3.8-3.8,5.4c-3.8,4.3-7.8,8.4-11.7,12.6c-0.7,0.7-1.2,1.5-0.8,2.5c0.4,1.1,1.4,1.2,2.4,1.2
	c13.1,0,26.2,0,39.3,0s26.3,0,39.4,0c0.9,0,1.7-0.2,2.2-1c0.5-0.9,0.2-1.7-0.3-2.5c-0.4-0.6-0.8-1.3-1.3-1.9
	c-3.4-5.2-7-10.3-10.1-15.6c-5.1-8.9-10-17.9-14.9-26.9c-0.5-0.9-1.1-1.5-2.2-1.5c-1,0-1.5,0.8-1.9,1.6c-3.3,7.2-6.6,14.3-9.9,21.5
	C52.9,44,52.7,44,52,43.1z M40.3,43.7c0.3-2.6,0.5-5.2,0.8-7.8c0-0.3,0.2-0.6,0.3-1c0.1-0.1,0.2-0.1,0.4-0.2
	c0.1,0.2,0.2,0.5,0.3,0.7c3,4.2,6,8.4,9,12.6c0.7,1,1.1,2.1,1,3.4C52,53,52,54.6,51.9,56.2c0,0.3-0.1,0.6-0.2,1.1
	c-0.4-0.3-0.6-0.5-0.8-0.7c-3.4-3.8-6.8-7.6-10.2-11.4C40.4,44.8,40.2,44.4,40.3,43.7z M31.6,47.5c2.2-3.3,4.3-6.5,6.5-9.7
	c0.1-0.2,0.4-0.3,0.6-0.4c0.1,0.2,0.2,0.4,0.2,0.5c-0.2,2.1-0.4,4-0.6,5.9c0,0.3-0.3,0.8-0.6,0.9c-1.8,1.2-3.7,2.3-5.5,3.4
	c-0.2,0.1-0.5,0.1-0.8,0.2C31.5,48,31.5,47.7,31.6,47.5z M28.3,65.3c-3.4,0-6.8,0-10.2,0c-0.2,0-0.5-0.1-0.9-0.2
	c0.8-0.9,1.4-1.6,2.1-2.3c1.8-1.9,3.6-3.9,5.5-5.8c0.5-0.5,0.7-0.5,1,0.2c1,2.4,2.1,4.9,3.1,7.3C29.1,65.1,28.9,65.3,28.3,65.3z
	 M30.8,64c-1.2-2.8-2.4-5.7-3.7-8.5c-0.2-0.6-0.3-1.1,0.1-1.5c0.5-0.5,0.9-1.1,1.5-1.4c3.2-2,6.4-4,9.6-6c0.5-0.3,0.8-0.3,1.2,0.2
	c0.9,1.2,1.9,2.3,2.9,3.4c-1.6,2.2-3.2,4.3-4.8,6.4c-1.9,2.5-3.8,5-5.6,7.5C31.4,65.1,31.2,65.1,30.8,64z M46.1,65.3
	c-1.8,0-3.7,0-5.5,0c-1.9,0-3.7,0-5.6,0c-0.3,0-0.5-0.2-0.8-0.3c0.1-0.2,0.2-0.5,0.3-0.7c2.9-3.9,5.8-7.9,8.7-11.8
	c0.5-0.6,0.8-0.6,1.3-0.1c2.1,2.4,4.2,4.7,6.4,7c0.4,0.4,0.5,0.7,0,1.2c-1.3,1.3-2.5,2.8-3.7,4.1C47,65.1,46.5,65.3,46.1,65.3z
	 M49.9,64.9c1-1.1,2-2.3,3-3.4c0.1-0.1,0.3-0.1,0.5,0c2.4,1.1,4.7,2.2,7.1,3.3c0,0,0,0,0.1,0.1C59.9,65.5,50.6,65.5,49.9,64.9z
	 M81.4,55.6c0-0.2,0.2-0.4,0.3-0.6c0.2,0.1,0.4,0.2,0.5,0.4c2,3,4,6.1,6,9.1c0.4,0.6,0.2,0.8-0.5,0.8c-1,0-2.1,0-3.1,0s-2.1,0-3.1,0
	c-0.6,0-0.8-0.2-0.7-0.8C80.9,61.6,81.1,58.6,81.4,55.6z M79.6,52.3c-0.2,2.9-0.4,5.9-0.6,8.8c0,0.6-0.1,1.3-0.1,1.9
	c0,0.2-0.2,0.5-0.3,0.7c-0.2-0.1-0.4-0.2-0.6-0.4c-1.9-2.7-3.8-5.5-5.7-8.3c-1.5-2.2-3.1-4.4-4.6-6.7c-0.1-0.2-0.2-0.3-0.4-0.8
	c0.5,0,0.8,0,1.1,0.1c3.2,0.8,6.4,1.6,9.5,2.4C79.2,50.4,79.7,51,79.6,52.3z M66.1,29.8c0-0.6,0.1-1.2,0.1-1.8c0.1,0,0.2,0,0.3,0
	c0.2,0.2,0.4,0.5,0.5,0.7c3.3,6,6.6,11.9,9.9,17.9c0.1,0.3,0.2,0.6,0.2,0.9c-0.3,0-0.6,0.1-0.9,0c-3.3-0.8-6.6-1.6-9.9-2.4
	c-0.5-0.1-0.7-0.4-0.7-0.9C65.8,39.4,66,34.6,66.1,29.8z M68.3,52.7c2.7,3.9,5.3,7.7,8,11.6c0.2,0.2,0.2,0.6,0.3,0.8
	c-0.3,0.1-0.5,0.2-0.8,0.2c-2.9,0-5.8,0-8.6,0c-0.5,0-1-0.1-1.4-0.3c-3.5-1.6-7-3.2-10.5-4.8c-0.6-0.3-0.8-0.5-0.3-1.1
	c3-3.7,6-7.3,9.1-11c0.2-0.2,0.3-0.4,0.5-0.8C65.9,49.3,67.1,51,68.3,52.7z M55.2,47.5c2.8-5.6,5.3-11.3,8-16.9
	c0.1-0.2,0.4-0.4,0.6-0.6c0.1,0.3,0.2,0.5,0.2,0.8c-0.1,4.7-0.2,9.4-0.4,14.1c0,0.3-0.1,0.6-0.3,0.8c-2.9,3.5-5.8,7-8.6,10.6
	c-0.2,0.2-0.4,0.3-0.6,0.5c-0.1-0.1-0.2-0.1-0.2-0.2C54,53.5,53.8,50.5,55.2,47.5z"/>
</svg>
