<?xml version="1.0" encoding="utf-8"?>
<!-- Generator: Adobe Illustrator 22.1.0, SVG Export Plug-In . SVG Version: 6.00 Build 0)  -->
<svg version="1.1" id="Layer_1" xmlns="http://www.w3.org/2000/svg" xmlns:xlink="http://www.w3.org/1999/xlink" x="0px" y="0px"
	 viewBox="0 0 103.8 103.4" style="enable-background:new 0 0 103.8 103.4;" xml:space="preserve">
<style type="text/css">
	.st0{fill:#03B2C6;}
	.st1{fill:#FFFFFF;}
</style>
<path id="bg" class="st0" d="M102.2,64.2c-6.8,27.8-34.9,44.5-62.5,37.6C11.9,94.9-4.8,66.9,2.1,39.2C8.9,11.4,37-5.3,64.6,1.6
	C92.4,8.3,109.2,36.5,102.2,64.2L102.2,64.2L102.2,64.2L102.2,64.2z"/>
<polygon class="st1" points="64.1,27.9 57.6,34.3 63.8,40.5 52.1,52.2 45.9,46.1 40.3,40.5 40.3,40.5 40.3,40.5 46.2,34.6 
	52.1,28.7 58.5,22.3 52,15.7 27.4,40.3 52,64.8 76.5,40.3 "/>
<polygon class="st1" points="76.7,61.7 70.4,55.4 52,73.8 33.7,55.4 27.4,61.7 52,86.2 52,86.2 52.1,86.2 "/>
<rect x="79.5" y="45.4" transform="matrix(0.7071 -0.7071 0.7071 0.7071 -13.7594 75.3263)" class="st1" width="9.1" height="17.7"/>
<rect x="11.2" y="49.7" transform="matrix(0.7071 -0.7071 0.7071 0.7071 -32.4919 30.0231)" class="st1" width="17.7" height="9.1"/>
</svg>
