<?xml version="1.0" encoding="utf-8"?>
<!-- Generator: Adobe Illustrator 22.1.0, SVG Export Plug-In . SVG Version: 6.00 Build 0)  -->
<svg version="1.1" id="Layer_1" xmlns="http://www.w3.org/2000/svg" xmlns:xlink="http://www.w3.org/1999/xlink" x="0px" y="0px"
	 viewBox="0 0 103.8 103.4" style="enable-background:new 0 0 103.8 103.4;" xml:space="preserve">
<style type="text/css">
	.st0{fill:#F6A806;}
	.st1{fill:#FFFFFF;}
</style>
<path id="bg" class="st0" d="M102.2,64.2c-6.8,27.8-34.9,44.5-62.5,37.6C11.9,94.9-4.8,66.9,2.1,39.2C8.9,11.4,37-5.3,64.6,1.6
	C92.4,8.3,109.2,36.5,102.2,64.2L102.2,64.2L102.2,64.2L102.2,64.2z"/>
<g>
	<path class="st1" d="M66.4,80.7c0.3-0.7,0.5-0.9,0.6-1.3c1.9-4,2.3-8.1,1-12.2c-2.3-7.9-10-12.9-18.1-11.9c-2.2,0.3-4.3,1-6.3,2.1
		c-6.9,4-15.4,4-22.3,0c3.6,8.3,8.7,15.8,15,22.3c3.6,3.7,7.6,7.1,11.9,10c1.5,1,3,1.9,3.8,2.4c5-2.9,9.6-6.4,13.8-10.4h0
		c0.2-0.2,0.3-0.4,0.4-0.6L66.4,80.7z"/>
	<path class="st1" d="M39.5,53.4c4.4-2.1,7.8-5.9,9.1-10.6c0.4-1.5,0.6-3,0.7-5c0.2-8,4.6-15.4,11.7-19.2c-2.5-0.3-5-0.4-7.5-0.5
		c-7.8-0.2-15.7,0.9-23.2,3.2C25,22.8,19.9,25,15,27.8c0,2.8,0.2,5.7,0.5,8.6c0.3,2.6,0.8,5.2,1.4,7.7c0.1,0.4,0.2,0.8,0.4,1.1
		C21.2,53.6,31.1,57.2,39.5,53.4z"/>
	<path class="st1" d="M74.2,72c1-1.3,1.9-2.6,2.8-4c6.6-10.2,10.7-21.9,11.7-34.1c0.2-2.1,0.3-4.2,0.3-6.2c-1.6-0.9-3.3-1.8-5-2.6
		c-2.8-1.3-5.1-2.3-7.4-3c-2.9-0.9-6-1-9-0.3C58.9,24,53.4,32.4,55,41.2c0.9,4.8,3.5,8.6,7.7,11.2c0.3,0.2,0.6,0.4,0.9,0.5
		c3.3,2,6.1,4.9,7.9,8.4C73.3,64.7,74.3,68.3,74.2,72z"/>
</g>
</svg>
