<?xml version="1.0" encoding="utf-8"?>
<!-- Generator: Adobe Illustrator 22.1.0, SVG Export Plug-In . SVG Version: 6.00 Build 0)  -->
<svg version="1.1" id="Layer_1" xmlns="http://www.w3.org/2000/svg" xmlns:xlink="http://www.w3.org/1999/xlink" x="0px" y="0px"
	 viewBox="0 0 103.8 103.4" style="enable-background:new 0 0 103.8 103.4;" xml:space="preserve">
<style type="text/css">
	.st0{fill:#5DC403;}
	.st1{fill:#FFFFFF;}
</style>
<path id="bg" class="st0" d="M102.2,64.2c-6.8,27.8-34.9,44.5-62.5,37.6C11.9,94.9-4.8,66.9,2.1,39.2C8.9,11.4,37-5.3,64.6,1.6
	C92.4,8.3,109.2,36.5,102.2,64.2L102.2,64.2L102.2,64.2L102.2,64.2z"/>
<g>
	<polygon class="st1" points="56.6,34.2 57.2,34 81.7,25.3 82.1,25.2 82.3,25.1 57.7,13.7 57.5,13.7 56.9,14 56.6,14.1 21.6,26.5 
		46.2,37.9 	"/>
	<polygon class="st1" points="20.6,75.1 45.5,86.7 45.5,39.7 20.6,28.1 	"/>
	<polygon class="st1" points="57.2,62.3 82.7,74.2 82.7,26.9 57.2,35.9 	"/>
</g>
</svg>
