<?xml version="1.0" encoding="utf-8"?>
<!-- Generator: Adobe Illustrator 22.1.0, SVG Export Plug-In . SVG Version: 6.00 Build 0)  -->
<svg version="1.1" id="Layer_1" xmlns="http://www.w3.org/2000/svg" xmlns:xlink="http://www.w3.org/1999/xlink" x="0px" y="0px"
	 viewBox="0 0 103.8 103.4" style="enable-background:new 0 0 103.8 103.4;" xml:space="preserve">
<style type="text/css">
	.st0{fill:#1A53F0;}
	.st1{fill:#FFFFFF;}
</style>
<path id="bg" class="st0" d="M102.2,64.2c-6.8,27.8-34.9,44.5-62.5,37.6C11.9,94.9-4.8,66.9,2.1,39.2C8.9,11.4,37-5.3,64.6,1.6
	C92.4,8.3,109.2,36.5,102.2,64.2L102.2,64.2L102.2,64.2L102.2,64.2z"/>
<g>
	<path class="st1" d="M29.5,48.8c7.1,3,15.3,0.6,19.7-5.8c4.3-6.4,3.6-14.9-1.8-20.5H52v-4.9H35.8c-9,0-16.2,7.3-16.2,16.2
		C19.6,40.4,23.5,46.3,29.5,48.8z M35.8,22.6c6.2,0,11.3,5.1,11.3,11.3l0,0c0,6.2-5.1,11.3-11.3,11.3l0,0c-6.2,0-11.3-5.1-11.3-11.3
		C24.5,27.6,29.6,22.6,35.8,22.6z"/>
	<path class="st1" d="M54.2,33.9c0,8.9,7.2,16.2,16.2,16.2c8.9,0,16.2-7.3,16.2-16.2l0,0c0-8.9-7.2-16.2-16.2-16.2
		S54.2,24.9,54.2,33.9z M70.4,22.6L70.4,22.6c6.2,0,11.3,5.1,11.3,11.3s-5.1,11.3-11.3,11.3c-6.2,0-11.3-5.1-11.3-11.3
		C59.1,27.6,64.1,22.6,70.4,22.6z"/>
	<path class="st1" d="M52,68.5c0-8.9-7.2-16.2-16.2-16.2c-8.9,0-16.2,7.3-16.2,16.2s7.2,16.2,16.2,16.2C44.7,84.7,52,77.4,52,68.5
		L52,68.5z M47.1,68.5c0,6.2-5.1,11.3-11.3,11.3s-11.3-5.1-11.3-11.3s5.1-11.3,11.3-11.3l0,0C42,57.2,47.1,62.2,47.1,68.5L47.1,68.5
		z"/>
</g>
</svg>
