<?xml version="1.0" encoding="utf-8"?>
<!-- Generator: Adobe Illustrator 22.1.0, SVG Export Plug-In . SVG Version: 6.00 Build 0)  -->
<svg version="1.1" id="Layer_1" xmlns="http://www.w3.org/2000/svg" xmlns:xlink="http://www.w3.org/1999/xlink" x="0px" y="0px"
	 viewBox="0 0 103.8 103.4" style="enable-background:new 0 0 103.8 103.4;" xml:space="preserve">
<style type="text/css">
	.st0{fill:#4CA3BE;}
	.st1{fill:#FFFFFF;}
</style>
<path id="bg" class="st0" d="M102.2,64.2c-6.8,27.8-34.9,44.5-62.5,37.6C11.9,94.9-4.8,66.9,2.1,39.2C8.9,11.4,37-5.3,64.6,1.6
	C92.4,8.3,109.2,36.5,102.2,64.2L102.2,64.2L102.2,64.2L102.2,64.2z"/>
<g>
	<path class="st1" d="M74.5,73.4l-53.1-52v30.4c0,16.8,13.9,30.4,31.1,30.4C61.1,82.3,68.8,78.9,74.5,73.4z"/>
	<path class="st1" d="M53.9,18.7c-8.6,0-16.4,3.4-22,8.9l53.1,52c0-9.1,0-19.2,0-30.4C85,32.3,71.1,18.7,53.9,18.7z"/>
</g>
</svg>
