<?xml version="1.0" encoding="utf-8"?>
<!-- Generator: Adobe Illustrator 22.1.0, SVG Export Plug-In . SVG Version: 6.00 Build 0)  -->
<svg version="1.1" id="Layer_1" xmlns="http://www.w3.org/2000/svg" xmlns:xlink="http://www.w3.org/1999/xlink" x="0px" y="0px"
	 viewBox="0 0 103.8 103.4" style="enable-background:new 0 0 103.8 103.4;" xml:space="preserve">
<style type="text/css">
	.st0{fill:#555555;}
	.st1{fill:#FFFFFF;}
</style>
<path id="bg" class="st0" d="M102,64.2c-6.8,27.8-34.9,44.5-62.5,37.6C11.7,94.9-5,66.9,1.9,39.2C8.7,11.4,36.8-5.3,64.4,1.6
	C92.2,8.3,109,36.5,102,64.2L102,64.2L102,64.2L102,64.2z"/>
<g>
	<path class="st1" d="M49.8,12.4c-1.5,0.2-3.1,0.3-4.6,0.5c-7.8,1.4-14.6,4.9-20.2,10.5c-0.9,0.9-1.7,1.8-2.5,2.7l8.6,11.5l0.4-0.5
		c2.4-3.6,5.8-6.5,9.7-8.5c0.3-0.2,0.5-0.1,0.8,0.1c1.6,1.6,3.3,3.2,5,4.8c0.3,0.3,0.6,0.6,0.9,0.9c7.9-5.6,15.7-11.2,23.5-16.9
		c-0.1-0.1-0.2-0.1-0.2-0.2c-4.7-2.7-10-4.4-15.5-4.9c-0.7-0.1-1.3-0.1-2-0.2h-3.3C50.2,12.4,50,12.4,49.8,12.4z"/>
	<path class="st1" d="M14.3,58.5c1.8,8.8,6.2,16,13,21.9l11.4-8.6c-0.1-0.1-0.1-0.2-0.1-0.2l-0.4-0.2c-3.6-2.4-6.5-5.8-8.5-9.7
		c-0.2-0.3-0.1-0.5,0.1-0.7c0.9-0.9,1.8-1.8,2.6-2.7l3.5-3.6L18.6,31.7h0C13.9,40.2,12.4,49.1,14.3,58.5z"/>
	<path class="st1" d="M89.5,42c-2-8.3-6.3-15.1-12.8-20.7l-11.5,8.6c0.2,0.2,0.3,0.3,0.5,0.3c3.7,2.4,6.6,5.8,8.6,9.8
		c0.2,0.3,0.2,0.5-0.1,0.8c-0.9,0.9-1.8,1.8-2.7,2.8L68.2,47l17.2,22.8C89.7,62.6,91.9,52.3,89.5,42z"/>
	<path class="st1" d="M53.8,89.3c0.2,0,0.3-0.1,0.5-0.1c1.2-0.1,2.4-0.2,3.6-0.4c9.3-1.5,17.1-5.9,23.3-13c0.2-0.3,0.3-0.5,0-0.8
		c-2.7-3.6-5.4-7.1-8.1-10.7c-0.1-0.1-0.2-0.2-0.3-0.3l-0.4,0.6c-2.4,3.6-5.7,6.4-9.5,8.4c-0.4,0.2-0.6,0.2-0.9-0.1
		c-1.3-1.3-2.6-2.5-3.9-3.8l-2.3-2.3c-7.7,5.8-15.4,11.5-23.1,17.3c0.1,0.1,0.2,0.1,0.3,0.2c4.4,2.5,9.3,4.2,14.4,4.8
		c0.9,0.1,1.9,0.2,2.8,0.3H53.8z"/>
</g>
</svg>
