<?xml version="1.0" encoding="utf-8"?>
<!-- Generator: Adobe Illustrator 22.1.0, SVG Export Plug-In . SVG Version: 6.00 Build 0)  -->
<svg version="1.1" id="Layer_1" xmlns="http://www.w3.org/2000/svg" xmlns:xlink="http://www.w3.org/1999/xlink" x="0px" y="0px"
	 viewBox="0 0 103.8 103.4" style="enable-background:new 0 0 103.8 103.4;" xml:space="preserve">
<style type="text/css">
	.st0{fill:#188FEA;}
	.st1{fill:#FFFFFF;}
</style>
<path id="bg" class="st0" d="M102.2,64.2c-6.8,27.8-34.9,44.5-62.5,37.6C11.9,94.9-4.8,66.9,2.1,39.2C8.9,11.4,37-5.3,64.6,1.6
	C92.4,8.3,109.2,36.5,102.2,64.2L102.2,64.2L102.2,64.2L102.2,64.2z"/>
<path id="icon" class="st1" d="M67.3,45.3c2.8-0.1,5.6-0.5,8.1-2c6.2-3.7,9-11.4,6.5-18.3s-9.4-11-16.5-9.8s-12.2,7.6-12.2,14.9
	c0,2.9,1,5.6,2.3,8.2c1.1,2.1,1.6,6-2.1,8.3c-2.8,1.7-6.3,0.6-8-2.2c-1.5-2.4-3.2-4.7-5.7-6.1c-6.2-3.7-14.1-2.3-18.8,3.4
	c-4.6,5.7-4.6,13.8,0,19.5c4.6,5.6,12.5,7.1,18.8,3.4c2.5-1.5,4.3-3.7,5.7-6.1c1.2-2,4.2-4.5,8-2.3c2.8,1.7,3.7,5.3,2.1,8.3
	c-1.3,2.5-2.3,5.2-2.3,8.2c0,7.4,5.2,13.7,12.2,14.9c7.1,1.3,14-2.8,16.5-9.8c2.5-6.9-0.3-14.6-6.5-18.3l0,0c-2.5-1.5-5.3-1.9-8.1-2
	c-2.3-0.1-5.8-1.6-5.8-6C61.5,48.1,64,45.5,67.3,45.3z"/>
</svg>
