<?xml version="1.0" encoding="utf-8"?>
<!-- Generator: Adobe Illustrator 22.1.0, SVG Export Plug-In . SVG Version: 6.00 Build 0)  -->
<svg version="1.1" id="Layer_1" xmlns="http://www.w3.org/2000/svg" xmlns:xlink="http://www.w3.org/1999/xlink" x="0px" y="0px"
	 viewBox="0 0 103.8 103.4" style="enable-background:new 0 0 103.8 103.4;" xml:space="preserve">
<style type="text/css">
	.st0{fill:#4400AA;}
	.st1{fill:#FFFFFF;}
</style>
<path id="bg" class="st0" d="M102.2,64.2c-6.8,27.8-34.9,44.5-62.5,37.6C11.9,94.9-4.8,66.9,2.1,39.2C8.9,11.4,37-5.3,64.6,1.6
	C92.4,8.3,109.2,36.5,102.2,64.2L102.2,64.2L102.2,64.2L102.2,64.2z"/>
<g>
	<g>
		<g>
			<g>
				<path class="st1" d="M75.1,64.2c0,3.2-1.3,6.1-3.5,8.1L51.2,92.7c0.3,0,0.6,0,0.8,0c18.3,0,33.7-12.1,38.8-28.7
					c1-3.3,0.1-6.8-2.3-9.3L75.1,41.4V64.2z"/>
				<path class="st1" d="M40.1,75.4c-3.3,0-6.3-1.5-8.3-3.8L11.5,51.4c0,0.3,0,0.6,0,0.8C11.5,70.5,23.6,86,40.3,91
					c3.3,1,6.8,0.1,9.2-2.3l13.3-13.3H40.1z"/>
				<path class="st1" d="M28.9,40.2c0-3.3,1.4-6.2,3.7-8.3l20.3-20.3c-0.3,0-0.6,0-0.9,0c-18.3,0-33.7,12.1-38.8,28.7
					c-1,3.3-0.1,6.8,2.3,9.2L28.9,63V40.2z"/>
				<path class="st1" d="M54.6,15.8L41.3,29.2l0,0H64c3.3,0,6.2,1.4,8.2,3.6l20.3,20.3c0-0.3,0-0.6,0-0.9
					c0-18.3-12.1-33.7-28.7-38.8C60.6,12.4,57.1,13.3,54.6,15.8z"/>
				<path class="st1" d="M63.9,36.6c2.2,0,4,1.7,4,3.9v23.6c0,2.2-1.8,4-4,4H40.3c-2.2,0-3.9-1.8-3.9-4V40.5c0-2.2,1.7-3.9,3.9-3.9
					H63.9 M63.9,33.2H40.3c-4,0-7.2,3.3-7.2,7.2v23.6c0,4,3.3,7.2,7.2,7.2h23.6c4,0,7.2-3.2,7.2-7.2V40.5
					C71.1,36.5,67.9,33.2,63.9,33.2L63.9,33.2z"/>
			</g>
		</g>
		<path class="st1" d="M44.4,60.9V43.7c0-1.5,1.6-2.4,2.9-1.6l13.3,8.6c1.1,0.7,1.1,2.4,0,3.1l-13.3,8.6
			C46,63.3,44.4,62.4,44.4,60.9z"/>
	</g>
</g>
</svg>
