<?xml version="1.0" encoding="utf-8"?>
<!-- Generator: Adobe Illustrator 22.1.0, SVG Export Plug-In . SVG Version: 6.00 Build 0)  -->
<svg version="1.1" id="Layer_1" xmlns="http://www.w3.org/2000/svg" xmlns:xlink="http://www.w3.org/1999/xlink" x="0px" y="0px"
	 viewBox="0 0 103.8 103.4" style="enable-background:new 0 0 103.8 103.4;" xml:space="preserve">
<style type="text/css">
	.st0{fill:#2892F3;}
	.st1{fill:#FFFFFF;}
</style>
<g id="master">
	<path id="bg" class="st0" d="M102.2,64.2c-6.8,27.8-34.9,44.5-62.5,37.6C11.9,94.9-4.8,66.9,2.1,39.2C8.9,11.4,37-5.3,64.6,1.6
		C92.4,8.3,109.2,36.5,102.2,64.2L102.2,64.2L102.2,64.2L102.2,64.2z"/>
</g>
<path class="st1" d="M76.4,18.1L76.4,18.1c-1-0.8-20.3,0.5-27.5,12.6c-2.5,4.2-4.9,8.3-7.2,12.5c-5.8-1.2-14.3-0.2-22.8,10.9
	c-0.4,0.5-0.6,1.3,0.5,1c2.7-0.8,8.2-1.8,14.9,1.5l-0.2,0.3c-1.3,2.3-0.6,3.5,1.7,5.2l0,0c-0.8,0.6-1.5,1.3-2.1,2.2
	c-0.1,0.1-0.1,0.2-0.2,0.3c-4.9,7.3-5.7,15.4-1.8,18.2c3.9,2.8,11.1-0.7,16.1-7.8c0.1-0.1,0.1-0.2,0.2-0.3c0.6-0.9,1-1.8,1.3-2.8
	l0.2,0.1c2.3,1.6,3.7,1.9,5.3-0.1l0.3-0.4c5.4,5.3,6.4,10.9,6.5,13.8c0,1.2,0.7,0.7,1.1,0.1C70.4,73.5,68.2,65,65,60
	c2.8-3.4,5.9-7.2,9.1-11.1C82.8,37.8,77.5,18.9,76.4,18.1L76.4,18.1z M47.2,71.7c0,0.1-0.1,0.1-0.2,0.2c-3.6,4.9-8.6,7.4-11.3,5.4
	c-2.7-1.9-2.1-7.5,1.3-12.5c0-0.1,0.1-0.1,0.1-0.2c0.3-0.4,0.6-0.7,0.9-1l4.7,3.3l5.1,3.7C47.6,71.1,47.4,71.4,47.2,71.7z
	 M67.7,42.7c-2.4,3.5-7.2,4.4-10.7,2c-0.1,0-0.1-0.1-0.2-0.1c-3.5-2.6-4.4-7.5-1.9-11.1v0c2.4-3.5,7.2-4.4,10.7-2
	c0.1,0,0.1,0.1,0.2,0.1C69.3,34.2,70.2,39.1,67.7,42.7z"/>
</svg>
