<?xml version="1.0" encoding="utf-8"?>
<!-- Generator: Adobe Illustrator 22.1.0, SVG Export Plug-In . SVG Version: 6.00 Build 0)  -->
<svg version="1.1" id="Layer_1" xmlns="http://www.w3.org/2000/svg" xmlns:xlink="http://www.w3.org/1999/xlink" x="0px" y="0px"
	 viewBox="0 0 103.8 103.4" style="enable-background:new 0 0 103.8 103.4;" xml:space="preserve">
<style type="text/css">
	.st0{fill:#2FA37B;}
	.st1{fill:#FFFFFF;}
</style>
<path id="bg" class="st0" d="M102.2,64.2c-6.8,27.8-34.9,44.5-62.5,37.6C11.9,94.9-4.8,66.9,2.1,39.2C8.9,11.4,37-5.3,64.6,1.6
	C92.4,8.3,109.2,36.5,102.2,64.2L102.2,64.2L102.2,64.2L102.2,64.2z"/>
<path class="st1" d="M89.8,50.7c0-4-12.7-7.4-29.6-8.1v-9.1h20.8V19.7H24.4v13.9h20.8v9.1c-16.9,0.8-29.6,4.1-29.6,8.1
	s12.7,7.4,29.6,8.1V88h15V58.9C77.1,58.1,89.8,54.7,89.8,50.7z M60.3,56.4L60.3,56.4c-0.4,0-2.6,0.2-7.5,0.2c-3.9,0-6.6-0.1-7.6-0.2
	v0c-14.9-0.7-26.1-3.3-26.1-6.4c0-3.1,11.1-5.7,26.1-6.4v10.2c1,0.1,3.8,0.2,7.6,0.2c4.6,0,7-0.2,7.4-0.2V43.7
	c14.9,0.7,26,3.3,26,6.4C86.3,53.1,75.2,55.7,60.3,56.4z"/>
</svg>
