<?xml version="1.0" encoding="utf-8"?>
<!-- Generator: Adobe Illustrator 22.1.0, SVG Export Plug-In . SVG Version: 6.00 Build 0)  -->
<svg version="1.1" id="Layer_1" xmlns="http://www.w3.org/2000/svg" xmlns:xlink="http://www.w3.org/1999/xlink" x="0px" y="0px"
	 viewBox="0 0 103.8 103.4" style="enable-background:new 0 0 103.8 103.4;" xml:space="preserve">
<style type="text/css">
	.st0{fill:#2C7DF7;}
	.st1{fill:#FFFFFF;}
</style>
<path id="bg" class="st0" d="M102.2,64.2c-6.8,27.8-34.9,44.5-62.5,37.6C11.9,94.9-4.8,66.9,2.1,39.2C8.9,11.4,37-5.3,64.6,1.6
	C92.4,8.3,109.2,36.5,102.2,64.2L102.2,64.2L102.2,64.2L102.2,64.2z"/>
<path class="st1" d="M60.3,91.6c-5.8,0-10-1.4-12.7-4.2c-2.7-2.8-3.9-5.7-3.9-9c0-1.1,0.2-2.1,0.7-2.9c0.4-0.8,1.1-1.4,1.9-1.9
	c0.8-0.4,1.8-0.7,2.9-0.7c1.2,0,2.1,0.2,2.9,0.7c0.8,0.4,1.4,1.1,1.9,1.9s0.7,1.8,0.7,2.9c0,1.4-0.4,2.6-1,3.4
	c-0.6,0.9-1.5,1.5-2.4,1.8c0.8,1.1,2.1,1.9,3.8,2.4c1.7,0.5,3.4,0.7,5.2,0.7c2.4,0,4.6-0.6,6.5-1.9s3.4-3.2,4.3-5.7
	c0.9-2.5,1.4-5.4,1.4-8.6c0-3.5-0.5-6.4-1.5-8.9c-1-2.5-2.4-4.4-4.4-5.5c-1.9-1.2-4-1.8-6.3-1.8c-1.5,0-3.3,0.6-5.5,1.9l-4,1.9v-2
	l18.2-24.3H43.7v25.3c0,2.1,0.4,3.8,1.4,5.2c0.9,1.4,2.4,2,4.2,2c1.5,0,2.9-0.5,4.2-1.5c1.4-1,2.5-2.2,3.5-3.6
	c0.1-0.3,0.3-0.5,0.4-0.6c0.2-0.1,0.4-0.2,0.6-0.2c0.4,0,0.7,0.1,1.2,0.5c0.4,0.5,0.6,1.1,0.6,1.7c0,0.3-0.1,0.7-0.2,1.3
	c-1,2.4-2.4,4.2-4.3,5.4s-3.9,1.9-6.1,1.9c-5.5,0-9.2-1.1-11.4-3.2c-2.1-2.1-3.1-5.1-3.1-8.7V31.9H21.8v-4.7h13V16.4l-2.9-2.9V11
	h8.6l3.2,1.6v14.4L77.1,27l3.3,3.3L59.9,50.8c1.2-0.5,2.5-0.8,3.9-0.9c2.2,0,4.7,0.7,7.4,2.1c2.8,1.4,4.9,3.3,6.4,5.7
	c1.5,2.4,2.5,4.7,2.9,6.9c0.4,2.2,0.7,4.2,0.7,5.9c0,3.9-0.9,7.6-2.5,11c-1.6,3.4-4.2,5.9-7.6,7.6C67.9,90.8,64.2,91.6,60.3,91.6z"
	/>
</svg>
