<?xml version="1.0" encoding="utf-8"?>
<!-- Generator: Adobe Illustrator 22.1.0, SVG Export Plug-In . SVG Version: 6.00 Build 0)  -->
<svg version="1.1" id="Layer_1" xmlns="http://www.w3.org/2000/svg" xmlns:xlink="http://www.w3.org/1999/xlink" x="0px" y="0px"
	 viewBox="0 0 103.8 103.4" style="enable-background:new 0 0 103.8 103.4;" xml:space="preserve">
<style type="text/css">
	.st0{fill:#BC2E24;}
	.st1{fill:#FFFFFF;}
</style>
<path id="bg" class="st0" d="M102.2,64.2c-6.8,27.8-34.9,44.5-62.5,37.6C11.9,94.9-4.8,66.9,2.1,39.2C8.9,11.4,37-5.3,64.6,1.6
	C92.4,8.3,109.2,36.5,102.2,64.2L102.2,64.2L102.2,64.2L102.2,64.2z"/>
<path class="st1" d="M83.9,37.3L83.9,37.3c-2.8-2-5.8-4.1-8.8-6.3c-0.1,0-0.1-0.1-0.2-0.1c-0.3-0.3-0.7-0.5-1.2-0.7l0,0
	c-7.9-1.9-15.9-3.9-23.7-5.8l-21.1-5.2L28.3,19c-0.6-0.2-1.4-0.4-2.2-0.3c-0.2,0-0.4,0.1-0.6,0.2l-0.2,0.2c-0.2,0.3-0.4,0.6-0.6,0.9
	l0,0.1v0.8l0,0.1c4.5,12.7,9,25.5,13.4,38c3.4,9.6,6.9,19.5,10.4,29.2c0.2,0.7,0.8,1.1,1.6,1.2h0.2c0.7,0,1.3-0.3,1.6-0.9l12.9-19.1
	c3.1-4.7,6.3-9.3,9.5-14l3.9-5.7c2.1-3.1,4.3-6.4,6.5-9.6l0.1-0.2v-0.2C84.9,39.1,84.9,37.9,83.9,37.3z M36.9,25
	c1.7,0.4,3.4,0.8,5,1.2l28.4,7c-3.2,3.4-6.3,6.9-9.4,10.2c-2.3,2.6-4.8,5.2-7.2,7.8c-4.7-5.7-9.3-11.4-14-17.2l-6.3-7.7l0,0
	c-0.5-0.5-0.9-1.1-1.4-1.7c-0.3-0.4-0.6-0.7-0.9-1.1C33.1,24.1,35,24.5,36.9,25z M51.7,58.7c-0.1,1.2-0.2,2.3-0.4,3.5v0
	c0,0.7-0.1,1.5-0.2,2.2l-0.4,3.3l0,0.1c-0.3,3.3-0.7,6.7-1,10c-0.1,1.4-0.3,2.7-0.4,4.1c-0.1-0.2-0.2-0.5-0.3-0.7
	c-0.2-0.7-0.5-1.4-0.7-2l-1.7-4.9L30,27.5h0c-0.2-0.6-0.4-1.2-0.6-1.8c4.4,5.4,8.8,10.8,13.2,16.1c2.2,2.7,4.5,5.4,6.7,8.2
	c0.4,0.5,0.9,1.1,1.3,1.6c0.6,0.7,1.1,1.4,1.7,2.1C52.1,55.4,51.9,57.1,51.7,58.7z M68.6,57.4c-2.9,4.3-5.9,8.8-8.9,13.2
	c-1.2,1.8-2.4,3.5-3.6,5.3c-1.3,1.9-2.6,3.9-4,5.9c0.2-2,0.4-4,0.6-5.9c0.2-1.7,0.4-3.5,0.5-5.3c0.1-1.4,0.3-2.8,0.4-4.2
	c0.2-2.2,0.5-4.5,0.7-6.7l0-0.4c0.2-1.4,0.3-2.9,0.4-4.4c0.2-0.1,0.4-0.2,0.6-0.3c0.2-0.1,0.5-0.2,0.7-0.4c3.8-2,7.5-4,11.3-6
	c3.8-2,7.6-4,11.5-6.1C75.5,47.1,72.1,52.3,68.6,57.4z M68.8,44.3c-3,1.6-6.1,3.3-9.3,4.9l5.5-5.9c2.3-2.5,4.6-5.1,7-7.6l0,0
	c0.2-0.3,0.4-0.5,0.7-0.8c0.2-0.2,0.4-0.4,0.6-0.6c1.2,0.8,2.4,1.7,3.6,2.6c0.8,0.6,1.7,1.2,2.6,1.8C75.9,40.5,72.3,42.4,68.8,44.3z
	"/>
</svg>
