<?xml version="1.0" encoding="iso-8859-1"?>
<!-- Generator: Adobe Illustrator 19.0.0, SVG Export Plug-In . SVG Version: 6.00 Build 0)  -->
<svg version="1.1" id="Capa_1" xmlns="http://www.w3.org/2000/svg" xmlns:xlink="http://www.w3.org/1999/xlink" x="0px" y="0px"
	 viewBox="0 0 512 512" style="enable-background:new 0 0 512 512;" xml:space="preserve">
<g>
	<g>
		<path d="M166.944,208.253h-51.54c-4.283,0-8.418,2.068-8.418,6.054v95.844c0,3.988,4.726,6.056,9.598,6.056
			c4.726,0,9.599-2.068,9.599-6.056v-40.463h22.595c4.135,0,5.906-3.988,5.906-7.386c0-3.986-2.067-7.68-5.906-7.68h-22.595v-29.535
			h40.759c3.839,0,5.906-3.986,5.906-8.564C172.85,212.536,171.078,208.253,166.944,208.253z"/>
	</g>
</g>
<g>
	<g>
		<path d="M252.453,304.541l-19.346-35.887c11.076-3.395,19.345-12.552,19.345-29.535c0-23.481-15.653-30.865-35-30.865h-29.24
			c-3.692,0-6.202,2.807-6.202,5.907v95.991c0,3.988,4.872,6.056,9.598,6.056c4.873,0,9.599-2.068,9.599-6.056v-38.543h12.406
			l20.97,40.759c1.476,2.953,3.987,4.579,6.646,4.579c5.612,0,11.962-5.169,11.962-10.042
			C253.191,306.313,253.044,305.28,252.453,304.541z M217.452,256.544h-16.244v-31.456h16.244c9.599,0,15.802,4.136,15.802,15.802
			C233.254,252.558,227.052,256.544,217.452,256.544z"/>
	</g>
</g>
<g>
	<g>
		<path d="M327.18,299.372h-41.793V269.69h22.447c4.135,0,6.054-3.988,6.054-7.386c0-3.986-2.215-7.68-6.054-7.68h-22.447v-29.535
			h41.793v-0.001c3.839,0,6.055-3.986,6.055-8.564c0-3.988-1.92-8.27-6.055-8.27h-52.573c-4.283,0-8.418,2.068-8.418,6.054v95.844
			c0,3.988,4.135,6.056,8.418,6.056h52.573c4.135,0,6.055-4.283,6.055-8.27C333.235,303.359,331.019,299.372,327.18,299.372z"/>
	</g>
</g>
<g>
	<g>
		<path d="M405.454,299.372h-41.793V269.69h22.447c4.135,0,6.054-3.988,6.054-7.386c0-3.986-2.216-7.68-6.054-7.68h-22.447v-29.535
			h41.793v-0.001c3.839,0,6.055-3.986,6.055-8.564c0-3.988-1.92-8.27-6.055-8.27h-52.573c-4.283,0-8.418,2.068-8.418,6.054v95.844
			c0,3.988,4.135,6.056,8.418,6.056h52.573c4.135,0,6.055-4.283,6.055-8.27C411.509,303.359,409.294,299.372,405.454,299.372z"/>
	</g>
</g>
<g>
	<g>
		<path d="M462.111,250.547c-0.027-1.02-0.077-2.035-0.117-3.052c-0.031-0.76-0.053-1.521-0.092-2.279
			c-0.071-1.39-0.166-2.776-0.265-4.161c-0.025-0.35-0.044-0.703-0.071-1.052c-0.125-1.636-0.273-3.267-0.436-4.895
			c-0.007-0.068-0.012-0.137-0.019-0.205c-2.315-22.915-8.411-45.07-18.234-66.092c-0.117-0.25-0.258-0.484-0.4-0.716
			C409.419,98.252,338.264,49.818,256,49.818c-82.262,0-153.416,48.431-186.474,118.273c-0.143,0.235-0.285,0.47-0.403,0.723
			c-9.824,21.022-15.919,43.179-18.233,66.094c-0.007,0.064-0.012,0.129-0.018,0.193c-0.164,1.632-0.312,3.267-0.437,4.905
			c-0.027,0.348-0.046,0.699-0.071,1.048c-0.099,1.386-0.194,2.773-0.264,4.163c-0.039,0.76-0.061,1.523-0.092,2.284
			c-0.041,1.015-0.09,2.028-0.116,3.046c-0.047,1.812-0.073,3.631-0.073,5.454c0,1.823,0.026,3.642,0.073,5.454
			c0.026,1.018,0.076,2.031,0.116,3.046c0.031,0.761,0.053,1.525,0.092,2.284c0.071,1.391,0.167,2.778,0.264,4.163
			c0.025,0.348,0.044,0.7,0.071,1.048c0.125,1.64,0.273,3.274,0.437,4.905c0.006,0.064,0.012,0.129,0.018,0.193
			c2.315,22.915,8.41,45.071,18.233,66.094c0.118,0.252,0.26,0.488,0.403,0.723C102.585,413.751,173.738,462.182,256,462.182
			c82.264,0,153.419-48.434,186.477-118.278c0.142-0.233,0.282-0.466,0.4-0.716c9.824-21.022,15.919-43.177,18.234-66.092
			c0.007-0.068,0.013-0.137,0.019-0.205c0.163-1.628,0.311-3.26,0.436-4.895c0.027-0.349,0.046-0.702,0.071-1.052
			c0.099-1.385,0.194-2.771,0.265-4.161c0.039-0.758,0.061-1.519,0.092-2.279c0.041-1.016,0.09-2.031,0.117-3.05
			c0.047-1.813,0.073-3.631,0.073-5.454S462.157,252.359,462.111,250.547z M431.209,332.534h-34.741
			c-4.134,0-7.484,3.35-7.484,7.484c0,4.134,3.351,7.484,7.484,7.484h27.39c-32.49,59.361-95.548,99.709-167.857,99.709
			s-135.368-40.346-167.857-99.708h273.499c4.134,0,7.484-3.35,7.484-7.484s-3.351-7.484-7.484-7.484H80.791
			c-10.283-23.448-16.004-49.334-16.004-76.534s5.722-53.085,16.004-76.534h34.741c4.134,0,7.484-3.35,7.484-7.484
			s-3.351-7.484-7.484-7.484h-27.39c32.49-59.364,95.548-99.711,167.857-99.711s135.368,40.348,167.857,99.709H150.358
			c-4.134,0-7.484,3.35-7.484,7.484s3.351,7.484,7.484,7.484h280.85c10.283,23.448,16.004,49.334,16.004,76.534
			S441.492,309.085,431.209,332.534z"/>
	</g>
</g>
<g>
	<g>
		<path d="M501.194,241.605c6.337-8.747,8.793-19.422,6.917-30.059c-1.875-10.637-7.836-19.827-16.781-25.879
			c-8.806-5.957-12.762-16.83-9.847-27.054c2.962-10.386,1.62-21.257-3.781-30.611c-5.4-9.354-14.144-15.953-24.621-18.581
			c-10.312-2.587-17.749-11.451-18.506-22.055c-0.768-10.774-5.749-20.53-14.023-27.472c-8.274-6.942-18.748-10.152-29.49-9.039
			c-10.576,1.098-20.595-4.688-24.932-14.395c-4.407-9.861-12.425-17.326-22.573-21.02c-10.15-3.693-21.09-3.129-30.804,1.593
			c-9.56,4.644-20.955,2.639-28.352-4.999C276.887,4.273,266.801,0,256,0s-20.887,4.273-28.402,12.031
			c-7.396,7.638-18.79,9.647-28.353,4.998c-9.714-4.721-20.654-5.286-30.803-1.592s-18.167,11.159-22.574,21.02
			c-4.338,9.707-14.36,15.489-24.932,14.395c-10.744-1.111-21.217,2.097-29.49,9.039c-8.274,6.942-13.254,16.698-14.023,27.472
			c-0.757,10.604-8.194,19.468-18.506,22.055c-10.477,2.628-19.22,9.227-24.621,18.581s-6.743,20.224-3.781,30.611
			c2.915,10.225-1.041,21.097-9.847,27.054c-8.946,6.052-14.905,15.243-16.781,25.88c-1.875,10.637,0.581,21.311,6.918,30.059
			c6.237,8.61,6.237,20.18,0,28.791c-6.337,8.747-8.793,19.422-6.918,30.059c1.875,10.637,7.836,19.827,16.781,25.879
			c8.806,5.957,12.762,16.83,9.847,27.054c-2.962,10.386-1.62,21.257,3.781,30.611c5.4,9.354,14.144,15.953,24.621,18.581
			c10.312,2.587,17.749,11.451,18.506,22.055c0.768,10.774,5.749,20.53,14.023,27.472c8.275,6.942,18.747,10.153,29.49,9.039
			c10.578-1.096,20.595,4.689,24.932,14.395c4.407,9.861,12.425,17.326,22.573,21.02c10.149,3.694,21.09,3.128,30.804-1.593
			c9.561-4.645,20.955-2.638,28.352,4.999C235.113,507.727,245.199,512,256,512s20.887-4.273,28.402-12.031
			c7.396-7.638,18.79-9.647,28.353-4.998c9.714,4.721,20.653,5.286,30.803,1.592c10.149-3.694,18.167-11.159,22.574-21.02
			c4.339-9.706,14.36-15.494,24.932-14.395c10.747,1.113,21.216-2.096,29.49-9.039c8.274-6.942,13.254-16.698,14.023-27.472
			c0.756-10.604,8.194-19.468,18.506-22.055c10.477-2.628,19.22-9.227,24.621-18.581c5.4-9.354,6.743-20.224,3.781-30.611
			c-2.915-10.225,1.041-21.097,9.847-27.054c8.946-6.052,14.905-15.243,16.781-25.879c1.875-10.637-0.581-21.311-6.917-30.059
			C494.957,261.785,494.957,250.215,501.194,241.605z M489.047,279.194c3.932,5.429,5.457,12.054,4.294,18.657
			c-1.165,6.601-4.862,12.306-10.416,16.062c-14.187,9.6-20.563,27.117-15.865,43.59c1.838,6.446,1.005,13.193-2.346,18.999
			c-3.352,5.806-8.779,9.901-15.28,11.532c-16.616,4.168-28.598,18.448-29.818,35.535c-0.477,6.687-3.568,12.742-8.703,17.052
			c-5.135,4.309-11.636,6.299-18.302,5.61c-17.041-1.77-33.183,7.556-40.173,23.194c-2.736,6.121-7.711,10.753-14.01,13.046
			c-6.3,2.293-13.088,1.942-19.118-0.987c-15.408-7.488-33.765-4.252-45.683,8.054c-4.663,4.815-10.924,7.467-17.627,7.467
			c-6.704,0-12.964-2.652-17.627-7.467c-7.638-7.887-17.922-12.048-28.381-12.048c-5.858,0-11.771,1.306-17.302,3.994
			c-6.028,2.929-12.819,3.281-19.117,0.988c-6.3-2.293-11.275-6.925-14.011-13.046c-6.989-15.638-23.134-24.965-40.173-23.194
			c-6.67,0.691-13.167-1.3-18.302-5.61s-8.226-10.365-8.703-17.052c-1.22-17.087-13.202-31.367-29.818-35.535
			c-6.502-1.632-11.929-5.727-15.28-11.532c-3.352-5.806-4.185-12.551-2.346-18.999c4.699-16.473-1.678-33.991-15.865-43.59
			c-5.552-3.756-9.25-9.461-10.415-16.062c-1.164-6.602,0.361-13.227,4.293-18.657c10.049-13.873,10.049-32.513,0-46.386
			c-3.932-5.429-5.457-12.054-4.293-18.657c1.165-6.601,4.862-12.306,10.416-16.062c14.187-9.6,20.563-27.117,15.865-43.59
			c-1.838-6.446-1.005-13.193,2.346-18.999s8.779-9.901,15.28-11.532c16.616-4.168,28.598-18.448,29.818-35.535
			c0.477-6.687,3.568-12.742,8.703-17.052c5.135-4.309,11.64-6.301,18.302-5.61c17.044,1.775,33.183-7.555,40.173-23.194
			c2.736-6.121,7.711-10.753,14.01-13.046c6.299-2.294,13.089-1.942,19.118,0.987c15.408,7.488,33.765,4.252,45.683-8.054
			c4.663-4.815,10.924-7.467,17.627-7.467c6.704,0,12.964,2.652,17.627,7.467c11.916,12.304,30.273,15.539,45.683,8.055
			c6.028-2.93,12.819-3.282,19.117-0.988c6.3,2.293,11.275,6.925,14.011,13.046c6.989,15.639,23.136,24.967,40.172,23.194
			c6.666-0.691,13.167,1.3,18.302,5.61c5.135,4.31,8.226,10.365,8.703,17.052c1.22,17.087,13.202,31.367,29.818,35.535
			c6.502,1.632,11.929,5.727,15.28,11.532c3.351,5.806,4.185,12.552,2.346,18.999c-4.699,16.473,1.678,33.991,15.865,43.59
			c5.552,3.756,9.25,9.461,10.415,16.062c1.164,6.602-0.361,13.227-4.294,18.657C478.997,246.679,478.997,265.321,489.047,279.194z"
			/>
	</g>
</g>
<g>
</g>
<g>
</g>
<g>
</g>
<g>
</g>
<g>
</g>
<g>
</g>
<g>
</g>
<g>
</g>
<g>
</g>
<g>
</g>
<g>
</g>
<g>
</g>
<g>
</g>
<g>
</g>
<g>
</g>
</svg>
