<svg id="100days" data-name="Layer 1" xmlns="http://www.w3.org/2000/svg" viewBox="0 0 286.8 175.87">
    <title>JaxxLiberty_Logo_RGB_Screen_100_Days</title>
    <style>
    </style> 
    <g>
    <path d="M608.83,364.19a8.85,8.85,0,0,0-3-2.52.76.76,0,0,0-1.15.29c-5.37,9.33-17.24,23.8-19.58,29.12-1.42,3.21-1.43,4.56.73,6.08,1.5,1.06,2,1.47,3.51,1.22a141.14,141.14,0,0,0,15.65-4.1c2.16-.7,2.57-1.45,2.92-2.7.11-.35.06-.5-.34-.51-1.86,0-8.65.72-15.09,1.6,2.79-6.27,12.14-17.59,15.18-22.91C609.57,366.51,609.58,365.25,608.83,364.19Z" transform="translate(-433.09 -236.42)" style="fill:#264176"/>
    <path d="M624.56,374.76a2.63,2.63,0,0,0,2.27-1c.61-.6,2.07-1.95,3.38-3.25.4-.4.15-.71-.35-1.11a8.23,8.23,0,0,0-2.86-1.47c-.4-.1-.85.2-1.61,1.05a18.41,18.41,0,0,0-2.93,4.31c-.2.45-.21.75,0,.9A4.85,4.85,0,0,0,624.56,374.76Z" transform="translate(-433.09 -236.42)" style="fill:#264176"/><path d="M661.08,391.61c-.15,0-.3.25-1.11.75a10.37,10.37,0,0,1-5.43,1.68,6.88,6.88,0,0,1-2.11-.31,7.41,7.41,0,0,1,.11-1.86,35.41,35.41,0,0,0,8.15-3.38c3.23-2,4.29-3.55,4.29-4.76a4,4,0,0,0-1.74-3c-1.4-2.12-2.45-2.57-3.81-2.58-3.1,0-7.46,2.46-10.35,5.69A13.64,13.64,0,0,1,645,385c.41-2.41-.14-4.12-.89-5a4.28,4.28,0,0,0-3.51-1.42,17.91,17.91,0,0,0-2.11.14c3.14-4.71,5.82-8.82,6.68-10.52,2.33-4.77,1.13-6.18-.68-6.69a7.63,7.63,0,0,0-1.45-.31c-.61,0-1,.35-1.87,1.7-3.39,5-9.5,14.18-15.62,23.49v0c-4.4,5.81-7.57,7.25-9.93,7.44.61-1.8,2.28-4.46,5.06-8.37,1.77-2.45,2.78-4.21,2.78-5.21,0-1.91-3.15-2.18-4.41-2.18a.83.83,0,0,0-.8.35,93.89,93.89,0,0,0-5.77,7.91c-3.79,5.81-3.7,7-1.44,9,1.4,1.16,2.1,1.67,3.56,1.67,2.31,0,5.37-2.28,7.91-4.93a5.08,5.08,0,0,0-.16,1.3c0,2.41,2.65,3.68,3.86,3.68,1,0,1.46-1.2,2.27-2.75,1,1.26,1.7,2,3.31,2,6.08,0,11-4.82,12.6-9.14.05-.2.16-.35.21-.55a20,20,0,0,0,2.78-.62c-1.5,2.49-1.94,4.94-1.3,6.41a8.67,8.67,0,0,0,3.75,4.13,6.59,6.59,0,0,0,3.17.67,11.25,11.25,0,0,0,6.84-2.58,2.86,2.86,0,0,0,1.16-1.51,4.25,4.25,0,0,0,.21-1.25C661.23,391.76,661.18,391.61,661.08,391.61Zm-26.88-.92a13.58,13.58,0,0,1-4.38,1.33,7.6,7.6,0,0,1,3.33-3.2,16.82,16.82,0,0,1,5.38-1.43A14.41,14.41,0,0,1,634.2,390.69Zm5.95-5.31c-3,.19-5.38.33-7.49,1.33a16.75,16.75,0,0,1,9.42-5.79A11.57,11.57,0,0,1,640.15,385.38Zm21.77-3.27c.1,1.46-.61,2.76-2.83,4.36a25.65,25.65,0,0,1-5.64,3C655.17,386,658.81,382.85,661.92,382.11Z" transform="translate(-433.09 -236.42)" style="fill:#264176"/><path d="M694.6,392.66a1.53,1.53,0,0,0,.4-1,2.91,2.91,0,0,0-.09-.75c0-.1-.2-.1-.3,0a10.14,10.14,0,0,1-6.05,2.84,5.31,5.31,0,0,1-.85-.11c1.57-3.46,5.62-9.52,8.55-13.73,1.86-.35,3.57-.74,4.78-1a2.49,2.49,0,0,0,1.31-.59,2.53,2.53,0,0,0,.36-1.21c0-.25-.15-.3-.8-.3-.86,0-2.12.09-3.68.23,1.88-2.85,2.94-4.61,2.95-5.81s-.75-1.77-1.95-2.38a7.71,7.71,0,0,0-2.51-.91c-.36,0-.51.25-1.22,1.55a95.22,95.22,0,0,1-5.51,8.27c-1.4.14-2.75.28-4,.42l.25-.18c.6-.45,1-.75,1-1.26s-.15-1.3-.55-1.31a5.36,5.36,0,0,0-1.61.75,49.33,49.33,0,0,0-8.11,5.49c.56-2.2.11-2.91-.59-3.32a7.51,7.51,0,0,0-2.71-.71c-.61-.05-.86.05-1,.35a84.46,84.46,0,0,1-5.87,8.62c-2.42,3.2-3.54,5.06-3.54,6.76,0,1.11.49,1.77,1.64,2.57a5,5,0,0,0,2.71,1.12c.81,0,1.11-.29,3.28-3.25,5.29-7.15,9.77-11.56,14.1-14.85a6,6,0,0,0,.33,1.54c.2.51.85.76,2.21.67-1.57,2.15-3,4.11-3.89,5.51-2.43,3.71-2.74,6.37-1.94,7.48,1.35,1.91,3.05,3.28,5.06,3.29C689.91,397.46,693.23,394.51,694.6,392.66Z" transform="translate(-433.09 -236.42)" style="fill:#264176"/><path d="M719.36,395.63c-2.06,0-4.92.08-8,.37,3.19-4.87,6.12-9.68,7.8-12.84.81-1.45.21-2.46-1.5-3a10.65,10.65,0,0,0-2.16-.66c-.5,0-.75.3-2,1.95-3.79,5.16-6.61,7.81-8.88,9.16.81-1.91,2.08-4.31,2.94-6.32,1.47-3.36.93-4.82-1.23-5.74a6.22,6.22,0,0,0-2.21-.51c-.4,0-.65.2-.76.75-.3,1.36-1.47,4.12-3.9,8-3,4.86-3.4,6.36-2.34,7.53a4.28,4.28,0,0,0,3.15,1.67,6.4,6.4,0,0,0,3.08-1.2,30,30,0,0,0,4.54-4.05c-1.37,2.26-2.69,4.26-3.9,6.07-6.34,1-12.53,2.76-16,5.76-2.82,2.5-2.88,5.51-1.64,7.33a5.57,5.57,0,0,0,4.67,2.43c5.68,0,12.23-4.82,18.5-13.69,2.51-.34,5.13-.63,7.89-.82a2,2,0,0,0,1.62-.7c.3-.45.55-.65.8-1.1C720,395.78,719.77,395.63,719.36,395.63ZM689.2,408.41c-.14-1.4,1.07-2.91,2.74-4.21,2.11-1.7,5.44-3.09,9.56-4.18C696.8,405.93,692.77,408.48,689.2,408.41Z" transform="translate(-433.09 -236.42)" style="fill:#264176"/><path d="M633.21,360.31h0a8.8,8.8,0,0,0-.08-11.19L626.37,341l3-3.54a8.8,8.8,0,0,1,13.51,11.29h0Zm32.7.11-39.54-47.31,6.75-8.08a8.8,8.8,0,0,0,.08-11.19h0l16.31,19.51,16.4-19.61A8.8,8.8,0,1,1,679.41,305L661,327.08l18.43,22.06a8.8,8.8,0,1,1-13.5,11.29Z" transform="translate(-433.09 -236.42)" style="fill:#264176"/><path d="M507.81,302.38a8.29,8.29,0,0,1,5.4-7.78c6.33-2.37,13.19-3.69,22.55-3.69,10.94,0,18.85,2.9,23.87,7.91,5.27,5.27,7.64,13.05,7.64,22.54v32.17a9.63,9.63,0,0,1-9.76,9.63c-5.8,0-9.62-4.1-9.62-8.31v-.13c-4.88,5.4-11.6,9-21.37,9-13.31,0-24.25-7.64-24.25-21.62v-.26c0-15.43,11.73-22.55,28.48-22.55a50.45,50.45,0,0,1,17.28,2.9V321c0-8.3-5.14-12.92-15.16-12.92A45.91,45.91,0,0,0,519,310a8.52,8.52,0,0,1-2.92.53A8.16,8.16,0,0,1,507.81,302.38Zm40.47,31.51a31,31,0,0,0-12.79-2.63c-8.57,0-13.84,3.42-13.84,9.75v.26c0,5.4,4.48,8.57,10.94,8.57,9.36,0,15.69-5.14,15.69-12.39Zm-72.82,50h.27c13.19,0,21.36-7.11,21.36-22.67V300.92a10,10,0,0,0-20-.31v60.44c0,4.75-2,6.59-4.88,6.59H472a7.69,7.69,0,0,0-7.78,8C464.26,381.22,469,383.85,475.46,383.85ZM611,336.39a8.81,8.81,0,0,0-1.11,12.4h0l9.72,11.62a8.8,8.8,0,1,0,13.5-11.29l-9.71-11.62A8.79,8.79,0,0,0,611,336.39Zm-37.68,12.73a8.8,8.8,0,1,0,13.51,11.29L633.12,305a8.8,8.8,0,0,0-13.51-11.29L603.2,313.38l-16.35-19.67A8.8,8.8,0,0,0,573.34,305l18.39,22.11Z" transform="translate(-433.09 -236.42)" style="fill:#ff6901"/><path d="M690.59,354a4.69,4.69,0,0,0-4.67,4.7v0a4.67,4.67,0,1,0,9.34.18v-.23a4.67,4.67,0,0,0-4.65-4.68Zm4.13,4.7a4.14,4.14,0,0,1-8.27.22v-.22a4.15,4.15,0,0,1,4.1-4.2h0a4.11,4.11,0,0,1,4.13,4.08v.12Z" transform="translate(-433.09 -236.42)" style="fill:#264176"/><path d="M692.73,357.69c0-1-.77-1.51-1.82-1.51h-1.69a.46.46,0,0,0-.45.46v3.92a.45.45,0,0,0,.42.48h0a.48.48,0,0,0,.46-.48v-1.27h1l1.23,1.51a.58.58,0,0,0,.43.24.47.47,0,0,0,.43-.46.51.51,0,0,0-.13-.34l-.91-1.08A1.51,1.51,0,0,0,692.73,357.69Zm-1.9.86h-1.16V357h1.16c.62,0,1,.27,1,.78S691.45,358.55,690.83,358.55Z" transform="translate(-433.09 -236.42)" style="fill:#264176"/><path d="M453.21,249.07c-1.35-1.19-1.93-1.77-2.71-1.77-.36,0-.62.32-1.14.89a42.14,42.14,0,0,1-9,7.8c-1.56.93-1.71,1.45-1.71,2.55,0,.31.15.36.52.26A35.06,35.06,0,0,0,445,256c-3.58,5.93-8.05,12.69-11.8,17.78-.31.47-.1.63.31.63a38.17,38.17,0,0,0,4.84-.63c2.39-.52,3.59-.93,4.52-2.18,3.59-4.84,8.43-12.27,10.14-15.13C455.86,251.78,455,250.63,453.21,249.07Z" transform="translate(-433.09 -236.42)" style="fill:#264176"/><path d="M474.89,249.38c-.93-1.4-1.5-2.23-2.7-2.23-5.51,0-11.44,4-15.76,9.72-2.44,3.43-3.48,6.5-3.48,9.31,0,2.65.62,3.85,2.7,5.77s3.59,2.5,5.36,2.5c8.68,0,17.16-11.13,17.16-19.19C478.17,252.3,476.87,250.16,474.89,249.38Zm-13.41,20.28c-1.62-2.08-1.3-5.51,1.71-9.46,3.64-4.73,7.44-7.23,11.55-8.53a4.71,4.71,0,0,1,.62,2.39C475.36,258.69,470.06,268.21,461.48,269.66Z" transform="translate(-433.09 -236.42)" style="fill:#264176"/><path d="M498,248.45a6.39,6.39,0,0,0-2.55-.52c-3.74,0-9.67,3.48-13.83,8.94-2.44,3.43-3.48,6.5-3.48,9.31a7.75,7.75,0,0,0,3.74,6.76,6.89,6.89,0,0,0,4.32,1.51c8.68,0,17.11-11.08,17.11-19.14C503.34,251.46,501.15,248.6,498,248.45ZM486,269.25c-.94-2,0-5.46,2.65-9.26,3.12-4.47,7-7.75,10.5-9.05a4,4,0,0,1,1.3,3.33C500.42,259.06,495,268.26,486,269.25Z" transform="translate(-433.09 -236.42)" style="fill:#264176"/><path d="M534.54,239.4a24.7,24.7,0,0,0-2.24-2.7c-.68-.47-1-.32-1.4.2s-.89,1.09-1.46,1.88a35.45,35.45,0,0,0-4.84.2c-1.24.16-1.4.52-1.3,1a10.05,10.05,0,0,0,1.93,4.53c-5.1,7.12-11.81,16.85-14.88,21.73-.67,1.1-.31,1.72,2.34,3.12a46.43,46.43,0,0,1-4.88.42c-.68.05-.84.42-.58,1.46.73,2.75,1.2,4.83,4.58,4.83,8.32,0,18.25-4.05,24.7-9.77,5.77-5.15,8.11-10.82,8.11-16.18C544.62,243.45,540.78,240.6,534.54,239.4Zm-16.23,28.91-.31.11c4.21-7,11.28-17.68,14.61-23.35,4.53-.21,7.91,1,9.57,2.86C541.3,254.69,533.08,264.57,518.31,268.31Z" transform="translate(-433.09 -236.42)" style="fill:#264176"/><path d="M600.36,254.12a8.67,8.67,0,0,0-3.79,1.24c-2.39,1.36-4,3.33-4,5.52a3.86,3.86,0,0,0,.63,2l-.17.2-.15.21a29.32,29.32,0,0,1-10,8c3.17-4.94,6.4-10.51,7.07-12.85.37-1.14.21-1.61-.62-2.08a10.12,10.12,0,0,0-3.12-.93c-.62,0-1,.36-1.56,1.35-3.07,5.46-6.66,8.94-9.52,10.5,1.41-3.74,3.18-7.48,3.64-9.15s.06-2.7-2.08-3.27a11.65,11.65,0,0,0-2.23-.42c-.42,0-.57.1-.68.36-.92,2.07-2.76,5.45-4.3,8.53-3.46,4.64-5.9,6.24-8.23,6.66a23.06,23.06,0,0,1,4.47-8.53,1.07,1.07,0,0,0,.21-1.2,14.91,14.91,0,0,0-3.48-3,2,2,0,0,0-1.51-.21,6.73,6.73,0,0,0-3.43-2.49,5.76,5.76,0,0,0-3.23.2,21.68,21.68,0,0,0-9.67,6.71c-3.07,3.64-3.49,6.66-2.29,8.63a5.67,5.67,0,0,0,2.29,2.29c2,1.77,3.17,1.82,4.47,1.25,1.46-.62,3.33-2.24,5.46-4.68-.47,3,.42,4.89,2.76,4.89,3.6,0,7.38-3,10.06-5.85l0,.08c-.83,2.49-.67,3.22.63,4.1a3.68,3.68,0,0,0,2.39.89c1.72,0,3.48-.89,7.54-4.94-1.14,2-2.39,3.9-3.69,5.72-7.13,1.51-13.16,2.86-16.28,5.61a6.08,6.08,0,0,0-2.23,4.42,5.41,5.41,0,0,0,2.08,4.32,5.88,5.88,0,0,0,4.16,1.51c3.64,0,11.28-3.9,18.72-15.13,6.29-2.5,9.72-5.93,13.15-10.51l.16-.21s0,0,0,0c.93,1.12,2,2.07,2,3.15,0,1.67-2.55,4.11-7.75,5.88-.42.16-.52.47-.32.94a5.81,5.81,0,0,0,1.15,1.71,3.73,3.73,0,0,0,3,1.3,9.54,9.54,0,0,0,5.1-1.77c2.39-1.71,3.17-3.38,3.17-5,0-3.28-3.22-4.11-3.22-5.67,0-1.82,3.9-4.05,7.54-5.2.57-.21.68-.83-.57-2.81A4.16,4.16,0,0,0,600.36,254.12Zm-44,9.51a20.91,20.91,0,0,1-8,6.71c-.11-3.95,5.09-9.78,10.92-11.65A51.1,51.1,0,0,0,556.32,263.63Zm3.28,22.52a2.16,2.16,0,0,1-.57,0c-.16-1.36.25-2.81,2-4.37,2-1.77,4.63-2.91,10.66-4.58C566.67,283.39,562.61,286.15,559.6,286.15Z" transform="translate(-433.09 -236.42)" style="fill:#264176"/><path d="M630.11,261.19a5.78,5.78,0,0,0-1.09-3.54c.52-.31.57-.47.57-.67s-.36-.89-1.87-1.82a5.61,5.61,0,0,0-3.17-.78c-3.07,0-8.32,3.12-11.19,6.91-3.37,4.53-3,8.06-.67,10.71a6.34,6.34,0,0,0,5.09,2.34C624.49,274.34,630.11,266.28,630.11,261.19Zm-12.48,9.41c-.57-4.73,5-9.67,10.14-12.27a4.17,4.17,0,0,1,.21,1.35C628,264.31,622.57,270.13,617.63,270.6Z" transform="translate(-433.09 -236.42)" style="fill:#264176"/><path d="M658.14,238.15a7.36,7.36,0,0,0-3.38-.88,3.43,3.43,0,0,0-2.4,1.25c-3.58,3.43-7.48,8.37-12.58,15.65l-4.47.62c-.42.11-.57.21-.57.37A5.54,5.54,0,0,0,636,257a1.75,1.75,0,0,0,1.41.67c-1.15,1.72-2.39,3.59-3.69,5.62a107.83,107.83,0,0,0-8.53,15.76c-.42,1.14-.11,1.66.73,1.66a11.55,11.55,0,0,0,2.18-.47c1.25-.21,2.08-.73,3.38-2.23,3-3.44,10.19-14.46,14.61-21.48,1-.26,2.19-.47,3.33-.78,1.93-.47,2.44-.62,2.76-1a2.84,2.84,0,0,0,.73-1.25c0-.26-.16-.36-.84-.36a40,40,0,0,0-4,.21c1.45-2.34,2.7-4.16,3.79-5.67.32.62.58.94.89,1a4.91,4.91,0,0,0,1.35.16,2.19,2.19,0,0,0,2.24-.78,24.43,24.43,0,0,0,2.54-7.65A2.24,2.24,0,0,0,658.14,238.15Z" transform="translate(-433.09 -236.42)" style="fill:#264176"/>
    </g>
</svg>